STARTFONT 2.1
COMMENT This font was automatically resized by bdfresize-1.5
COMMENT   mag_x = 2/1, mag_y = 2/1, blackness = 4
COMMENT MZ-700 ASCII font
COMMENT 8x8 dot bitmap font
COMMENT not resize. original size.
FONT -Mz700bdfascii-Fixed-Medium-R-Normal--16-160-75-75-M-160-ISO10646-1
SIZE 16 75 75
FONTBOUNDINGBOX 16 16 0 0
STARTPROPERTIES 19
FONT_ASCENT 16
FONT_DESCENT 0
DEFAULT_CHAR 32
COPYRIGHT "Unknown"
FONTNAME_REGISTRY ""
FOUNDRY "Mz700bdfascii"
FAMILY_NAME "Fixed"
WEIGHT_NAME "Medium"
SLANT "R"
SETWIDTH_NAME "Normal"
ADD_STYLE_NAME ""
PIXEL_SIZE 16
POINT_SIZE 160
RESOLUTION_X 75
RESOLUTION_Y 75
SPACING "M"
AVERAGE_WIDTH 160
CHARSET_REGISTRY "ISO10646"
CHARSET_ENCODING "1"
ENDPROPERTIES
CHARS 344
STARTCHAR 20
ENCODING 32
SWIDTH 1920 0
DWIDTH 16 0
BBX 16 16 0 0
BITMAP
0000
0000
0000
0000
0000
0000
0000
0000
0000
0000
0000
0000
0000
0000
0000
0000
ENDCHAR
STARTCHAR 21
ENCODING 33
SWIDTH 1920 0
DWIDTH 16 0
BBX 16 16 0 0
BITMAP
00C0
00C0
00C0
00C0
00C0
00C0
00C0
00C0
0000
0000
0000
0000
00C0
00C0
0000
0000
ENDCHAR
STARTCHAR 22
ENCODING 34
SWIDTH 1920 0
DWIDTH 16 0
BBX 16 16 0 0
BITMAP
0C30
0C30
0C30
0C30
0C30
0C30
0000
0000
0000
0000
0000
0000
0000
0000
0000
0000
ENDCHAR
STARTCHAR 23
ENCODING 35
SWIDTH 1920 0
DWIDTH 16 0
BBX 16 16 0 0
BITMAP
0C30
0C30
0C30
0C30
3FFC
3FFC
0C30
0C30
3FFC
3FFC
0C30
0C30
0C30
0C30
0000
0000
ENDCHAR
STARTCHAR 24
ENCODING 36
SWIDTH 1920 0
DWIDTH 16 0
BBX 16 16 0 0
BITMAP
00C0
00C0
03FC
03FC
0CC0
0CC0
03F0
03F0
00CC
00CC
0FF0
0FF0
00C0
00C0
0000
0000
ENDCHAR
STARTCHAR 25
ENCODING 37
SWIDTH 1920 0
DWIDTH 16 0
BBX 16 16 0 0
BITMAP
0000
0000
3C0C
3C0C
3C30
3C30
00C0
00C0
0300
0300
0C3C
0C3C
303C
303C
0000
0000
ENDCHAR
STARTCHAR 26
ENCODING 38
SWIDTH 1920 0
DWIDTH 16 0
BBX 16 16 0 0
BITMAP
0F00
0F00
30C0
30C0
30C0
30C0
0F00
0F00
30CC
30CC
3030
3030
0FCC
0FCC
0000
0000
ENDCHAR
STARTCHAR 27
ENCODING 39
SWIDTH 1920 0
DWIDTH 16 0
BBX 16 16 0 0
BITMAP
0030
0030
00C0
00C0
0300
0300
0000
0000
0000
0000
0000
0000
0000
0000
0000
0000
ENDCHAR
STARTCHAR 28
ENCODING 40
SWIDTH 1920 0
DWIDTH 16 0
BBX 16 16 0 0
BITMAP
0030
0030
00C0
00C0
0300
0300
0300
0300
0300
0300
00C0
00C0
0030
0030
0000
0000
ENDCHAR
STARTCHAR 29
ENCODING 41
SWIDTH 1920 0
DWIDTH 16 0
BBX 16 16 0 0
BITMAP
0C00
0C00
0300
0300
00C0
00C0
00C0
00C0
00C0
00C0
0300
0300
0C00
0C00
0000
0000
ENDCHAR
STARTCHAR 2a
ENCODING 42
SWIDTH 1920 0
DWIDTH 16 0
BBX 16 16 0 0
BITMAP
00C0
00C0
0CCC
0CCC
03F0
03F0
0FFC
0FFC
03F0
03F0
0CCC
0CCC
00C0
00C0
0000
0000
ENDCHAR
STARTCHAR 2b
ENCODING 43
SWIDTH 1920 0
DWIDTH 16 0
BBX 16 16 0 0
BITMAP
0000
0000
00C0
00C0
00C0
00C0
0FFC
0FFC
00C0
00C0
00C0
00C0
0000
0000
0000
0000
ENDCHAR
STARTCHAR 2c
ENCODING 44
SWIDTH 1920 0
DWIDTH 16 0
BBX 16 16 0 0
BITMAP
0000
0000
0000
0000
0000
0000
0000
0000
0000
0000
00C0
00C0
00C0
00C0
0300
0300
ENDCHAR
STARTCHAR 2d
ENCODING 45
SWIDTH 1920 0
DWIDTH 16 0
BBX 16 16 0 0
BITMAP
0000
0000
0000
0000
0000
0000
3FFC
3FFC
0000
0000
0000
0000
0000
0000
0000
0000
ENDCHAR
STARTCHAR 2e
ENCODING 46
SWIDTH 1920 0
DWIDTH 16 0
BBX 16 16 0 0
BITMAP
0000
0000
0000
0000
0000
0000
0000
0000
0000
0000
03C0
03C0
03C0
03C0
0000
0000
ENDCHAR
STARTCHAR 2f
ENCODING 47
SWIDTH 1920 0
DWIDTH 16 0
BBX 16 16 0 0
BITMAP
0000
0000
000C
000C
0030
0030
00C0
00C0
0300
0300
0C00
0C00
3000
3000
0000
0000
ENDCHAR
STARTCHAR 30
ENCODING 48
SWIDTH 1920 0
DWIDTH 16 0
BBX 16 16 0 0
BITMAP
0FF0
0FF0
300C
300C
303C
303C
33CC
33CC
3C0C
3C0C
300C
300C
0FF0
0FF0
0000
0000
ENDCHAR
STARTCHAR 31
ENCODING 49
SWIDTH 1920 0
DWIDTH 16 0
BBX 16 16 0 0
BITMAP
00C0
00C0
03C0
03C0
0CC0
0CC0
00C0
00C0
00C0
00C0
00C0
00C0
0FFC
0FFC
0000
0000
ENDCHAR
STARTCHAR 32
ENCODING 50
SWIDTH 1920 0
DWIDTH 16 0
BBX 16 16 0 0
BITMAP
0FF0
0FF0
300C
300C
000C
000C
00F0
00F0
0F00
0F00
3000
3000
3FFC
3FFC
0000
0000
ENDCHAR
STARTCHAR 33
ENCODING 51
SWIDTH 1920 0
DWIDTH 16 0
BBX 16 16 0 0
BITMAP
0FF0
0FF0
300C
300C
000C
000C
0FF0
0FF0
000C
000C
300C
300C
0FF0
0FF0
0000
0000
ENDCHAR
STARTCHAR 34
ENCODING 52
SWIDTH 1920 0
DWIDTH 16 0
BBX 16 16 0 0
BITMAP
0030
0030
00F0
00F0
0330
0330
0C30
0C30
3FFC
3FFC
0030
0030
0030
0030
0000
0000
ENDCHAR
STARTCHAR 35
ENCODING 53
SWIDTH 1920 0
DWIDTH 16 0
BBX 16 16 0 0
BITMAP
3FFC
3FFC
3000
3000
3FC0
3FC0
0030
0030
000C
000C
3030
3030
0FC0
0FC0
0000
0000
ENDCHAR
STARTCHAR 36
ENCODING 54
SWIDTH 1920 0
DWIDTH 16 0
BBX 16 16 0 0
BITMAP
03F0
03F0
0C00
0C00
3000
3000
3FF0
3FF0
300C
300C
300C
300C
0FF0
0FF0
0000
0000
ENDCHAR
STARTCHAR 37
ENCODING 55
SWIDTH 1920 0
DWIDTH 16 0
BBX 16 16 0 0
BITMAP
3FFC
3FFC
300C
300C
0030
0030
00C0
00C0
0300
0300
0300
0300
0300
0300
0000
0000
ENDCHAR
STARTCHAR 38
ENCODING 56
SWIDTH 1920 0
DWIDTH 16 0
BBX 16 16 0 0
BITMAP
0FF0
0FF0
300C
300C
300C
300C
0FF0
0FF0
300C
300C
300C
300C
0FF0
0FF0
0000
0000
ENDCHAR
STARTCHAR 39
ENCODING 57
SWIDTH 1920 0
DWIDTH 16 0
BBX 16 16 0 0
BITMAP
0FF0
0FF0
300C
300C
300C
300C
0FFC
0FFC
000C
000C
0030
0030
0FC0
0FC0
0000
0000
ENDCHAR
STARTCHAR 3a
ENCODING 58
SWIDTH 1920 0
DWIDTH 16 0
BBX 16 16 0 0
BITMAP
0000
0000
0000
0000
00C0
00C0
0000
0000
0000
0000
00C0
00C0
0000
0000
0000
0000
ENDCHAR
STARTCHAR 3b
ENCODING 59
SWIDTH 1920 0
DWIDTH 16 0
BBX 16 16 0 0
BITMAP
0000
0000
0000
0000
00C0
00C0
0000
0000
0000
0000
00C0
00C0
00C0
00C0
0300
0300
ENDCHAR
STARTCHAR 3c
ENCODING 60
SWIDTH 1920 0
DWIDTH 16 0
BBX 16 16 0 0
BITMAP
00FC
00FC
03C0
03C0
0F00
0F00
3C00
3C00
0F00
0F00
03C0
03C0
00FC
00FC
0000
0000
ENDCHAR
STARTCHAR 3d
ENCODING 61
SWIDTH 1920 0
DWIDTH 16 0
BBX 16 16 0 0
BITMAP
0000
0000
0000
0000
3FFC
3FFC
0000
0000
3FFC
3FFC
0000
0000
0000
0000
0000
0000
ENDCHAR
STARTCHAR 3e
ENCODING 62
SWIDTH 1920 0
DWIDTH 16 0
BBX 16 16 0 0
BITMAP
3F00
3F00
03C0
03C0
00F0
00F0
003C
003C
00F0
00F0
03C0
03C0
3F00
3F00
0000
0000
ENDCHAR
STARTCHAR 3f
ENCODING 63
SWIDTH 1920 0
DWIDTH 16 0
BBX 16 16 0 0
BITMAP
0FF0
0FF0
300C
300C
000C
000C
00F0
00F0
0300
0300
0000
0000
0300
0300
0000
0000
ENDCHAR
STARTCHAR 40
ENCODING 64
SWIDTH 1920 0
DWIDTH 16 0
BBX 16 16 0 0
BITMAP
03F0
03F0
0C0C
0C0C
30CC
30CC
333C
333C
30F0
30F0
0C00
0C00
03FC
03FC
0000
0000
ENDCHAR
STARTCHAR 41
ENCODING 65
SWIDTH 1920 0
DWIDTH 16 0
BBX 16 16 0 0
BITMAP
03C0
03C0
0C30
0C30
300C
300C
3FFC
3FFC
300C
300C
300C
300C
300C
300C
0000
0000
ENDCHAR
STARTCHAR 42
ENCODING 66
SWIDTH 1920 0
DWIDTH 16 0
BBX 16 16 0 0
BITMAP
3FF0
3FF0
0C0C
0C0C
0C0C
0C0C
0FF0
0FF0
0C0C
0C0C
0C0C
0C0C
3FF0
3FF0
0000
0000
ENDCHAR
STARTCHAR 43
ENCODING 67
SWIDTH 1920 0
DWIDTH 16 0
BBX 16 16 0 0
BITMAP
03F0
03F0
0C0C
0C0C
3000
3000
3000
3000
3000
3000
0C0C
0C0C
03F0
03F0
0000
0000
ENDCHAR
STARTCHAR 44
ENCODING 68
SWIDTH 1920 0
DWIDTH 16 0
BBX 16 16 0 0
BITMAP
3FC0
3FC0
0C30
0C30
0C0C
0C0C
0C0C
0C0C
0C0C
0C0C
0C30
0C30
3FC0
3FC0
0000
0000
ENDCHAR
STARTCHAR 45
ENCODING 69
SWIDTH 1920 0
DWIDTH 16 0
BBX 16 16 0 0
BITMAP
3FFC
3FFC
3000
3000
3000
3000
3FC0
3FC0
3000
3000
3000
3000
3FFC
3FFC
0000
0000
ENDCHAR
STARTCHAR 46
ENCODING 70
SWIDTH 1920 0
DWIDTH 16 0
BBX 16 16 0 0
BITMAP
3FFC
3FFC
3000
3000
3000
3000
3FC0
3FC0
3000
3000
3000
3000
3000
3000
0000
0000
ENDCHAR
STARTCHAR 47
ENCODING 71
SWIDTH 1920 0
DWIDTH 16 0
BBX 16 16 0 0
BITMAP
03F0
03F0
0C0C
0C0C
3000
3000
30FC
30FC
300C
300C
0C0C
0C0C
03F0
03F0
0000
0000
ENDCHAR
STARTCHAR 48
ENCODING 72
SWIDTH 1920 0
DWIDTH 16 0
BBX 16 16 0 0
BITMAP
300C
300C
300C
300C
300C
300C
3FFC
3FFC
300C
300C
300C
300C
300C
300C
0000
0000
ENDCHAR
STARTCHAR 49
ENCODING 73
SWIDTH 1920 0
DWIDTH 16 0
BBX 16 16 0 0
BITMAP
03F0
03F0
00C0
00C0
00C0
00C0
00C0
00C0
00C0
00C0
00C0
00C0
03F0
03F0
0000
0000
ENDCHAR
STARTCHAR 4a
ENCODING 74
SWIDTH 1920 0
DWIDTH 16 0
BBX 16 16 0 0
BITMAP
00FC
00FC
0030
0030
0030
0030
0030
0030
0030
0030
3030
3030
0FC0
0FC0
0000
0000
ENDCHAR
STARTCHAR 4b
ENCODING 75
SWIDTH 1920 0
DWIDTH 16 0
BBX 16 16 0 0
BITMAP
300C
300C
3030
3030
30C0
30C0
3F00
3F00
30C0
30C0
3030
3030
300C
300C
0000
0000
ENDCHAR
STARTCHAR 4c
ENCODING 76
SWIDTH 1920 0
DWIDTH 16 0
BBX 16 16 0 0
BITMAP
3000
3000
3000
3000
3000
3000
3000
3000
3000
3000
3000
3000
3FFC
3FFC
0000
0000
ENDCHAR
STARTCHAR 4d
ENCODING 77
SWIDTH 1920 0
DWIDTH 16 0
BBX 16 16 0 0
BITMAP
300C
300C
3C3C
3C3C
33CC
33CC
33CC
33CC
300C
300C
300C
300C
300C
300C
0000
0000
ENDCHAR
STARTCHAR 4e
ENCODING 78
SWIDTH 1920 0
DWIDTH 16 0
BBX 16 16 0 0
BITMAP
300C
300C
3C0C
3C0C
330C
330C
30CC
30CC
303C
303C
300C
300C
300C
300C
0000
0000
ENDCHAR
STARTCHAR 4f
ENCODING 79
SWIDTH 1920 0
DWIDTH 16 0
BBX 16 16 0 0
BITMAP
03C0
03C0
0C30
0C30
300C
300C
300C
300C
300C
300C
0C30
0C30
03C0
03C0
0000
0000
ENDCHAR
STARTCHAR 50
ENCODING 80
SWIDTH 1920 0
DWIDTH 16 0
BBX 16 16 0 0
BITMAP
3FF0
3FF0
300C
300C
300C
300C
3FF0
3FF0
3000
3000
3000
3000
3000
3000
0000
0000
ENDCHAR
STARTCHAR 51
ENCODING 81
SWIDTH 1920 0
DWIDTH 16 0
BBX 16 16 0 0
BITMAP
03C0
03C0
0C30
0C30
300C
300C
300C
300C
30CC
30CC
0C30
0C30
03CC
03CC
0000
0000
ENDCHAR
STARTCHAR 52
ENCODING 82
SWIDTH 1920 0
DWIDTH 16 0
BBX 16 16 0 0
BITMAP
3FF0
3FF0
300C
300C
300C
300C
3FF0
3FF0
30C0
30C0
3030
3030
300C
300C
0000
0000
ENDCHAR
STARTCHAR 53
ENCODING 83
SWIDTH 1920 0
DWIDTH 16 0
BBX 16 16 0 0
BITMAP
0FF0
0FF0
300C
300C
3000
3000
0FF0
0FF0
000C
000C
300C
300C
0FF0
0FF0
0000
0000
ENDCHAR
STARTCHAR 54
ENCODING 84
SWIDTH 1920 0
DWIDTH 16 0
BBX 16 16 0 0
BITMAP
0FFC
0FFC
00C0
00C0
00C0
00C0
00C0
00C0
00C0
00C0
00C0
00C0
00C0
00C0
0000
0000
ENDCHAR
STARTCHAR 55
ENCODING 85
SWIDTH 1920 0
DWIDTH 16 0
BBX 16 16 0 0
BITMAP
300C
300C
300C
300C
300C
300C
300C
300C
300C
300C
300C
300C
0FF0
0FF0
0000
0000
ENDCHAR
STARTCHAR 56
ENCODING 86
SWIDTH 1920 0
DWIDTH 16 0
BBX 16 16 0 0
BITMAP
300C
300C
300C
300C
300C
300C
0C30
0C30
0C30
0C30
03C0
03C0
03C0
03C0
0000
0000
ENDCHAR
STARTCHAR 57
ENCODING 87
SWIDTH 1920 0
DWIDTH 16 0
BBX 16 16 0 0
BITMAP
300C
300C
300C
300C
300C
300C
33CC
33CC
33CC
33CC
3C3C
3C3C
300C
300C
0000
0000
ENDCHAR
STARTCHAR 58
ENCODING 88
SWIDTH 1920 0
DWIDTH 16 0
BBX 16 16 0 0
BITMAP
300C
300C
300C
300C
0C30
0C30
03C0
03C0
0C30
0C30
300C
300C
300C
300C
0000
0000
ENDCHAR
STARTCHAR 59
ENCODING 89
SWIDTH 1920 0
DWIDTH 16 0
BBX 16 16 0 0
BITMAP
0C0C
0C0C
0C0C
0C0C
0C0C
0C0C
03F0
03F0
00C0
00C0
00C0
00C0
00C0
00C0
0000
0000
ENDCHAR
STARTCHAR 5a
ENCODING 90
SWIDTH 1920 0
DWIDTH 16 0
BBX 16 16 0 0
BITMAP
3FFC
3FFC
000C
000C
0030
0030
03C0
03C0
0C00
0C00
3000
3000
3FFC
3FFC
0000
0000
ENDCHAR
STARTCHAR 5b
ENCODING 91
SWIDTH 1920 0
DWIDTH 16 0
BBX 16 16 0 0
BITMAP
0FF0
0FF0
0C00
0C00
0C00
0C00
0C00
0C00
0C00
0C00
0C00
0C00
0FF0
0FF0
0000
0000
ENDCHAR
STARTCHAR 5c
ENCODING 92
SWIDTH 1920 0
DWIDTH 16 0
BBX 16 16 0 0
BITMAP
0000
0000
3000
3000
0C00
0C00
0300
0300
00C0
00C0
0030
0030
000C
000C
0000
0000
ENDCHAR
STARTCHAR 5d
ENCODING 93
SWIDTH 1920 0
DWIDTH 16 0
BBX 16 16 0 0
BITMAP
0FF0
0FF0
0030
0030
0030
0030
0030
0030
0030
0030
0030
0030
0FF0
0FF0
0000
0000
ENDCHAR
STARTCHAR 5f
ENCODING 95
SWIDTH 1920 0
DWIDTH 16 0
BBX 16 16 0 0
BITMAP
0000
0000
0000
0000
0000
0000
0000
0000
0000
0000
0000
0000
0000
0000
FFFF
FFFF
ENDCHAR
STARTCHAR 61
ENCODING 97
SWIDTH 1920 0
DWIDTH 16 0
BBX 16 16 0 0
BITMAP
0000
0000
0000
0000
0FC0
0FC0
0030
0030
0FF0
0FF0
3030
3030
0FCC
0FCC
0000
0000
ENDCHAR
STARTCHAR 62
ENCODING 98
SWIDTH 1920 0
DWIDTH 16 0
BBX 16 16 0 0
BITMAP
3000
3000
3000
3000
33F0
33F0
3C0C
3C0C
300C
300C
3C0C
3C0C
33F0
33F0
0000
0000
ENDCHAR
STARTCHAR 63
ENCODING 99
SWIDTH 1920 0
DWIDTH 16 0
BBX 16 16 0 0
BITMAP
0000
0000
0000
0000
0FF0
0FF0
300C
300C
3000
3000
300C
300C
0FF0
0FF0
0000
0000
ENDCHAR
STARTCHAR 64
ENCODING 100
SWIDTH 1920 0
DWIDTH 16 0
BBX 16 16 0 0
BITMAP
000C
000C
000C
000C
0FCC
0FCC
303C
303C
300C
300C
303C
303C
0FCC
0FCC
0000
0000
ENDCHAR
STARTCHAR 65
ENCODING 101
SWIDTH 1920 0
DWIDTH 16 0
BBX 16 16 0 0
BITMAP
0000
0000
0000
0000
0FF0
0FF0
300C
300C
3FFC
3FFC
3000
3000
0FF0
0FF0
0000
0000
ENDCHAR
STARTCHAR 66
ENCODING 102
SWIDTH 1920 0
DWIDTH 16 0
BBX 16 16 0 0
BITMAP
00F0
00F0
030C
030C
0300
0300
3FF0
3FF0
0300
0300
0300
0300
0300
0300
0000
0000
ENDCHAR
STARTCHAR 67
ENCODING 103
SWIDTH 1920 0
DWIDTH 16 0
BBX 16 16 0 0
BITMAP
0000
0000
0000
0000
0FCC
0FCC
303C
303C
303C
303C
0FCC
0FCC
000C
000C
0FF0
0FF0
ENDCHAR
STARTCHAR 68
ENCODING 104
SWIDTH 1920 0
DWIDTH 16 0
BBX 16 16 0 0
BITMAP
3000
3000
3000
3000
33F0
33F0
3C0C
3C0C
300C
300C
300C
300C
300C
300C
0000
0000
ENDCHAR
STARTCHAR 69
ENCODING 105
SWIDTH 1920 0
DWIDTH 16 0
BBX 16 16 0 0
BITMAP
00C0
00C0
0000
0000
03C0
03C0
00C0
00C0
00C0
00C0
00C0
00C0
03F0
03F0
0000
0000
ENDCHAR
STARTCHAR 6a
ENCODING 106
SWIDTH 1920 0
DWIDTH 16 0
BBX 16 16 0 0
BITMAP
0030
0030
0000
0000
00F0
00F0
0030
0030
0030
0030
0030
0030
3030
3030
0FC0
0FC0
ENDCHAR
STARTCHAR 6b
ENCODING 107
SWIDTH 1920 0
DWIDTH 16 0
BBX 16 16 0 0
BITMAP
3000
3000
3000
3000
3030
3030
30C0
30C0
3300
3300
3CC0
3CC0
3030
3030
0000
0000
ENDCHAR
STARTCHAR 6c
ENCODING 108
SWIDTH 1920 0
DWIDTH 16 0
BBX 16 16 0 0
BITMAP
03C0
03C0
00C0
00C0
00C0
00C0
00C0
00C0
00C0
00C0
00C0
00C0
03F0
03F0
0000
0000
ENDCHAR
STARTCHAR 6d
ENCODING 109
SWIDTH 1920 0
DWIDTH 16 0
BBX 16 16 0 0
BITMAP
0000
0000
0000
0000
3F3C
3F3C
30C3
30C3
30C3
30C3
30C3
30C3
30C3
30C3
0000
0000
ENDCHAR
STARTCHAR 6e
ENCODING 110
SWIDTH 1920 0
DWIDTH 16 0
BBX 16 16 0 0
BITMAP
0000
0000
0000
0000
33F0
33F0
3C0C
3C0C
300C
300C
300C
300C
300C
300C
0000
0000
ENDCHAR
STARTCHAR 6f
ENCODING 111
SWIDTH 1920 0
DWIDTH 16 0
BBX 16 16 0 0
BITMAP
0000
0000
0000
0000
0FF0
0FF0
300C
300C
300C
300C
300C
300C
0FF0
0FF0
0000
0000
ENDCHAR
STARTCHAR 70
ENCODING 112
SWIDTH 1920 0
DWIDTH 16 0
BBX 16 16 0 0
BITMAP
0000
0000
0000
0000
33F0
33F0
3C0C
3C0C
3C0C
3C0C
33F0
33F0
3000
3000
3000
3000
ENDCHAR
STARTCHAR 71
ENCODING 113
SWIDTH 1920 0
DWIDTH 16 0
BBX 16 16 0 0
BITMAP
0000
0000
0000
0000
0FCC
0FCC
303C
303C
303C
303C
0FCC
0FCC
000C
000C
000C
000C
ENDCHAR
STARTCHAR 72
ENCODING 114
SWIDTH 1920 0
DWIDTH 16 0
BBX 16 16 0 0
BITMAP
0000
0000
0000
0000
33F0
33F0
3C0C
3C0C
3000
3000
3000
3000
3000
3000
0000
0000
ENDCHAR
STARTCHAR 73
ENCODING 115
SWIDTH 1920 0
DWIDTH 16 0
BBX 16 16 0 0
BITMAP
0000
0000
0000
0000
0FFC
0FFC
3000
3000
0FF0
0FF0
000C
000C
3FF0
3FF0
0000
0000
ENDCHAR
STARTCHAR 74
ENCODING 116
SWIDTH 1920 0
DWIDTH 16 0
BBX 16 16 0 0
BITMAP
0300
0300
0300
0300
3FF0
3FF0
0300
0300
0300
0300
030C
030C
00F0
00F0
0000
0000
ENDCHAR
STARTCHAR 75
ENCODING 117
SWIDTH 1920 0
DWIDTH 16 0
BBX 16 16 0 0
BITMAP
0000
0000
0000
0000
300C
300C
300C
300C
300C
300C
300C
300C
0FF0
0FF0
0000
0000
ENDCHAR
STARTCHAR 76
ENCODING 118
SWIDTH 1920 0
DWIDTH 16 0
BBX 16 16 0 0
BITMAP
0000
0000
0000
0000
300C
300C
300C
300C
300C
300C
0C30
0C30
03C0
03C0
0000
0000
ENDCHAR
STARTCHAR 77
ENCODING 119
SWIDTH 1920 0
DWIDTH 16 0
BBX 16 16 0 0
BITMAP
0000
0000
0000
0000
3003
3003
30C3
30C3
30C3
30C3
30C3
30C3
0F3C
0F3C
0000
0000
ENDCHAR
STARTCHAR 78
ENCODING 120
SWIDTH 1920 0
DWIDTH 16 0
BBX 16 16 0 0
BITMAP
0000
0000
0000
0000
3030
3030
0CC0
0CC0
0300
0300
0CC0
0CC0
3030
3030
0000
0000
ENDCHAR
STARTCHAR 79
ENCODING 121
SWIDTH 1920 0
DWIDTH 16 0
BBX 16 16 0 0
BITMAP
0000
0000
0000
0000
300C
300C
300C
300C
303C
303C
0FCC
0FCC
000C
000C
0FF0
0FF0
ENDCHAR
STARTCHAR 7a
ENCODING 122
SWIDTH 1920 0
DWIDTH 16 0
BBX 16 16 0 0
BITMAP
0000
0000
0000
0000
3FFC
3FFC
0030
0030
03C0
03C0
0C00
0C00
3FFC
3FFC
0000
0000
ENDCHAR
STARTCHAR 7c
ENCODING 124
SWIDTH 1920 0
DWIDTH 16 0
BBX 16 16 0 0
BITMAP
00C0
00C0
00C0
00C0
00C0
00C0
00C0
00C0
00C0
00C0
00C0
00C0
00C0
00C0
00C0
00C0
ENDCHAR
STARTCHAR 7e
ENCODING 126
SWIDTH 1920 0
DWIDTH 16 0
BBX 16 16 0 0
BITMAP
0000
0000
0000
0000
0C00
0C00
3300
3300
C0C0
C0C0
0033
0033
000C
000C
0000
0000
ENDCHAR
STARTCHAR d7
ENCODING 215
SWIDTH 1920 0
DWIDTH 16 0
BBX 16 16 0 0
BITMAP
C003
C003
300C
300C
0C30
0C30
03C0
03C0
03C0
03C0
0C30
0C30
300C
300C
C003
C003
ENDCHAR
STARTCHAR 3c0
ENCODING 960
SWIDTH 1920 0
DWIDTH 16 0
BBX 16 16 0 0
BITMAP
0000
0000
0000
0000
0003
0003
0FFC
0FFC
3330
3330
0330
0330
0330
0330
0000
0000
ENDCHAR
STARTCHAR 2026
ENCODING 8230
SWIDTH 1920 0
DWIDTH 16 0
BBX 16 16 0 0
BITMAP
0000
0000
0000
0000
0000
0000
0000
0000
0000
0000
3F00
3F00
3300
3300
3F00
3F00
ENDCHAR
STARTCHAR 2190
ENCODING 8592
SWIDTH 1920 0
DWIDTH 16 0
BBX 16 16 0 0
BITMAP
0000
0000
0000
0000
0300
0300
0C00
0C00
3FFF
3FFF
0C00
0C00
0300
0300
0000
0000
ENDCHAR
STARTCHAR 2191
ENCODING 8593
SWIDTH 1920 0
DWIDTH 16 0
BBX 16 16 0 0
BITMAP
0000
0000
00C0
00C0
03F0
03F0
0CCC
0CCC
00C0
00C0
00C0
00C0
00C0
00C0
0000
0000
ENDCHAR
STARTCHAR 2192
ENCODING 8594
SWIDTH 1920 0
DWIDTH 16 0
BBX 16 16 0 0
BITMAP
0000
0000
0000
0000
00C0
00C0
0030
0030
FFFC
FFFC
0030
0030
00C0
00C0
0000
0000
ENDCHAR
STARTCHAR 2193
ENCODING 8595
SWIDTH 1920 0
DWIDTH 16 0
BBX 16 16 0 0
BITMAP
0000
0000
00C0
00C0
00C0
00C0
00C0
00C0
0CCC
0CCC
03F0
03F0
00C0
00C0
0000
0000
ENDCHAR
STARTCHAR 21bf
ENCODING 8639
SWIDTH 1920 0
DWIDTH 16 0
BBX 16 16 0 0
BITMAP
000C
000C
000C
000C
000C
000C
000C
000C
000C
000C
000C
000C
003F
003F
000C
000C
ENDCHAR
STARTCHAR 21c0
ENCODING 8640
SWIDTH 1920 0
DWIDTH 16 0
BBX 16 16 0 0
BITMAP
0000
0000
0000
0000
0000
0000
0000
0000
0000
0000
000C
000C
FFFF
FFFF
000C
000C
ENDCHAR
STARTCHAR 21d6
ENCODING 8662
SWIDTH 1920 0
DWIDTH 16 0
BBX 16 16 0 0
BITMAP
0C00
0C00
0300
0300
C0C0
C0C0
3030
3030
0C0C
0C0C
0303
0303
00C0
00C0
0030
0030
ENDCHAR
STARTCHAR 21d7
ENCODING 8663
SWIDTH 1920 0
DWIDTH 16 0
BBX 16 16 0 0
BITMAP
0030
0030
00C0
00C0
0303
0303
0C0C
0C0C
3030
3030
C0C0
C0C0
0300
0300
0C00
0C00
ENDCHAR
STARTCHAR 21e6
ENCODING 8678
SWIDTH 1920 0
DWIDTH 16 0
BBX 16 16 0 0
BITMAP
FFFF
FFFF
FFFF
FFFF
FCFF
FCFF
F3FF
F3FF
C003
C003
F3FF
F3FF
FCFF
FCFF
FFFF
FFFF
ENDCHAR
STARTCHAR 21e7
ENCODING 8679
SWIDTH 1920 0
DWIDTH 16 0
BBX 16 16 0 0
BITMAP
FFFF
FFFF
FF3F
FF3F
FC0F
FC0F
F333
F333
FF3F
FF3F
FF3F
FF3F
FF3F
FF3F
FFFF
FFFF
ENDCHAR
STARTCHAR 21e8
ENCODING 8680
SWIDTH 1920 0
DWIDTH 16 0
BBX 16 16 0 0
BITMAP
FFFF
FFFF
FFFF
FFFF
FF3F
FF3F
FFCF
FFCF
C003
C003
FFCF
FFCF
FF3F
FF3F
FFFF
FFFF
ENDCHAR
STARTCHAR 21e9
ENCODING 8681
SWIDTH 1920 0
DWIDTH 16 0
BBX 16 16 0 0
BITMAP
FFFF
FFFF
FF3F
FF3F
FF3F
FF3F
FF3F
FF3F
F333
F333
FC0F
FC0F
FF3F
FF3F
FFFF
FFFF
ENDCHAR
STARTCHAR 22a5
ENCODING 8869
SWIDTH 1920 0
DWIDTH 16 0
BBX 16 16 0 0
BITMAP
000C
000C
000C
000C
000C
000C
000C
000C
000C
000C
000C
000C
FFFF
FFFF
000C
000C
ENDCHAR
STARTCHAR 2460
ENCODING 9312
SWIDTH 1920 0
DWIDTH 16 0
BBX 16 16 0 0
BITMAP
0000
0000
3F00
3F00
3F00
3F00
3F00
3F00
0000
0000
0000
0000
0000
0000
0000
0000
ENDCHAR
STARTCHAR 2461
ENCODING 9313
SWIDTH 1920 0
DWIDTH 16 0
BBX 16 16 0 0
BITMAP
0000
0000
003F
003F
003F
003F
003F
003F
0000
0000
0000
0000
0000
0000
0000
0000
ENDCHAR
STARTCHAR 2462
ENCODING 9314
SWIDTH 1920 0
DWIDTH 16 0
BBX 16 16 0 0
BITMAP
0000
0000
3F3F
3F3F
3F3F
3F3F
3F3F
3F3F
0000
0000
0000
0000
0000
0000
0000
0000
ENDCHAR
STARTCHAR 2463
ENCODING 9315
SWIDTH 1920 0
DWIDTH 16 0
BBX 16 16 0 0
BITMAP
0000
0000
0000
0000
0000
0000
0000
0000
0000
0000
3F00
3F00
3F00
3F00
3F00
3F00
ENDCHAR
STARTCHAR 2464
ENCODING 9316
SWIDTH 1920 0
DWIDTH 16 0
BBX 16 16 0 0
BITMAP
0000
0000
3F00
3F00
3F00
3F00
3F00
3F00
0000
0000
3F00
3F00
3F00
3F00
3F00
3F00
ENDCHAR
STARTCHAR 2465
ENCODING 9317
SWIDTH 1920 0
DWIDTH 16 0
BBX 16 16 0 0
BITMAP
0000
0000
003F
003F
003F
003F
003F
003F
0000
0000
3F00
3F00
3F00
3F00
3F00
3F00
ENDCHAR
STARTCHAR 2466
ENCODING 9318
SWIDTH 1920 0
DWIDTH 16 0
BBX 16 16 0 0
BITMAP
0000
0000
3F3F
3F3F
3F3F
3F3F
3F3F
3F3F
0000
0000
3F00
3F00
3F00
3F00
3F00
3F00
ENDCHAR
STARTCHAR 2467
ENCODING 9319
SWIDTH 1920 0
DWIDTH 16 0
BBX 16 16 0 0
BITMAP
0000
0000
0000
0000
0000
0000
0000
0000
0000
0000
003F
003F
003F
003F
003F
003F
ENDCHAR
STARTCHAR 2468
ENCODING 9320
SWIDTH 1920 0
DWIDTH 16 0
BBX 16 16 0 0
BITMAP
0000
0000
3F00
3F00
3F00
3F00
3F00
3F00
0000
0000
003F
003F
003F
003F
003F
003F
ENDCHAR
STARTCHAR 2469
ENCODING 9321
SWIDTH 1920 0
DWIDTH 16 0
BBX 16 16 0 0
BITMAP
0000
0000
003F
003F
003F
003F
003F
003F
0000
0000
003F
003F
003F
003F
003F
003F
ENDCHAR
STARTCHAR 246a
ENCODING 9322
SWIDTH 1920 0
DWIDTH 16 0
BBX 16 16 0 0
BITMAP
0000
0000
3F3F
3F3F
3F3F
3F3F
3F3F
3F3F
0000
0000
003F
003F
003F
003F
003F
003F
ENDCHAR
STARTCHAR 246b
ENCODING 9323
SWIDTH 1920 0
DWIDTH 16 0
BBX 16 16 0 0
BITMAP
0000
0000
0000
0000
0000
0000
0000
0000
0000
0000
3F3F
3F3F
3F3F
3F3F
3F3F
3F3F
ENDCHAR
STARTCHAR 246c
ENCODING 9324
SWIDTH 1920 0
DWIDTH 16 0
BBX 16 16 0 0
BITMAP
0000
0000
3F00
3F00
3F00
3F00
3F00
3F00
0000
0000
3F3F
3F3F
3F3F
3F3F
3F3F
3F3F
ENDCHAR
STARTCHAR 246d
ENCODING 9325
SWIDTH 1920 0
DWIDTH 16 0
BBX 16 16 0 0
BITMAP
0000
0000
003F
003F
003F
003F
003F
003F
0000
0000
3F3F
3F3F
3F3F
3F3F
3F3F
3F3F
ENDCHAR
STARTCHAR 246e
ENCODING 9326
SWIDTH 1920 0
DWIDTH 16 0
BBX 16 16 0 0
BITMAP
0000
0000
3F3F
3F3F
3F3F
3F3F
3F3F
3F3F
0000
0000
3F3F
3F3F
3F3F
3F3F
3F3F
3F3F
ENDCHAR
STARTCHAR 24b8
ENCODING 9400
SWIDTH 1920 0
DWIDTH 16 0
BBX 16 16 0 0
BITMAP
FC0F
FC0F
F3F3
F3F3
CFFF
CFFF
CFFF
CFFF
CFFF
CFFF
F3F3
F3F3
FC0F
FC0F
FFFF
FFFF
ENDCHAR
STARTCHAR 24bd
ENCODING 9405
SWIDTH 1920 0
DWIDTH 16 0
BBX 16 16 0 0
BITMAP
CFCF
CFCF
CFCF
CFCF
CFCF
CFCF
C00F
C00F
CFCF
CFCF
CFCF
CFCF
CFCF
CFCF
FFFF
FFFF
ENDCHAR
STARTCHAR 2500
ENCODING 9472
SWIDTH 1920 0
DWIDTH 16 0
BBX 16 16 0 0
BITMAP
0000
0000
0000
0000
0000
0000
0000
0000
FFFF
FFFF
0000
0000
0000
0000
0000
0000
ENDCHAR
STARTCHAR 2503
ENCODING 9475
SWIDTH 1920 0
DWIDTH 16 0
BBX 16 16 0 0
BITMAP
0300
0300
0300
0300
0300
0300
0300
0300
0300
0300
0300
0300
0300
0300
0300
0300
ENDCHAR
STARTCHAR 2506
ENCODING 9478
SWIDTH 1920 0
DWIDTH 16 0
BBX 16 16 0 0
BITMAP
000C
000C
000C
000C
000C
000C
000C
000C
000C
000C
000C
000C
000C
000C
000C
000C
ENDCHAR
STARTCHAR 2507
ENCODING 9479
SWIDTH 1920 0
DWIDTH 16 0
BBX 16 16 0 0
BITMAP
3000
3000
3000
3000
3000
3000
3000
3000
3000
3000
3000
3000
3000
3000
3000
3000
ENDCHAR
STARTCHAR 250a
ENCODING 9482
SWIDTH 1920 0
DWIDTH 16 0
BBX 16 16 0 0
BITMAP
0030
0030
0030
0030
0030
0030
0030
0030
0030
0030
0030
0030
0030
0030
0030
0030
ENDCHAR
STARTCHAR 250b
ENCODING 9483
SWIDTH 1920 0
DWIDTH 16 0
BBX 16 16 0 0
BITMAP
0C00
0C00
0C00
0C00
0C00
0C00
0C00
0C00
0C00
0C00
0C00
0C00
0C00
0C00
0C00
0C00
ENDCHAR
STARTCHAR 250c
ENCODING 9484
SWIDTH 1920 0
DWIDTH 16 0
BBX 16 16 0 0
BITMAP
0000
0000
0000
0000
0000
0000
0000
0000
00FF
00FF
00C0
00C0
00C0
00C0
00C0
00C0
ENDCHAR
STARTCHAR 250f
ENCODING 9487
SWIDTH 1920 0
DWIDTH 16 0
BBX 16 16 0 0
BITMAP
FFFF
FFFF
C000
C000
C000
C000
C000
C000
C000
C000
C000
C000
C000
C000
C000
C000
ENDCHAR
STARTCHAR 2510
ENCODING 9488
SWIDTH 1920 0
DWIDTH 16 0
BBX 16 16 0 0
BITMAP
0000
0000
0000
0000
0000
0000
0000
0000
FFC0
FFC0
00C0
00C0
00C0
00C0
00C0
00C0
ENDCHAR
STARTCHAR 2513
ENCODING 9491
SWIDTH 1920 0
DWIDTH 16 0
BBX 16 16 0 0
BITMAP
FFFF
FFFF
0003
0003
0003
0003
0003
0003
0003
0003
0003
0003
0003
0003
0003
0003
ENDCHAR
STARTCHAR 2514
ENCODING 9492
SWIDTH 1920 0
DWIDTH 16 0
BBX 16 16 0 0
BITMAP
00C0
00C0
00C0
00C0
00C0
00C0
00C0
00C0
00FF
00FF
0000
0000
0000
0000
0000
0000
ENDCHAR
STARTCHAR 2517
ENCODING 9495
SWIDTH 1920 0
DWIDTH 16 0
BBX 16 16 0 0
BITMAP
C000
C000
C000
C000
C000
C000
C000
C000
C000
C000
C000
C000
C000
C000
FFFF
FFFF
ENDCHAR
STARTCHAR 2518
ENCODING 9496
SWIDTH 1920 0
DWIDTH 16 0
BBX 16 16 0 0
BITMAP
00C0
00C0
00C0
00C0
00C0
00C0
00C0
00C0
FFC0
FFC0
0000
0000
0000
0000
0000
0000
ENDCHAR
STARTCHAR 251b
ENCODING 9499
SWIDTH 1920 0
DWIDTH 16 0
BBX 16 16 0 0
BITMAP
0003
0003
0003
0003
0003
0003
0003
0003
0003
0003
0003
0003
0003
0003
FFFF
FFFF
ENDCHAR
STARTCHAR 251c
ENCODING 9500
SWIDTH 1920 0
DWIDTH 16 0
BBX 16 16 0 0
BITMAP
00C0
00C0
00C0
00C0
00C0
00C0
00C0
00C0
00FF
00FF
00C0
00C0
00C0
00C0
00C0
00C0
ENDCHAR
STARTCHAR 2524
ENCODING 9508
SWIDTH 1920 0
DWIDTH 16 0
BBX 16 16 0 0
BITMAP
00C0
00C0
00C0
00C0
00C0
00C0
00C0
00C0
FFC0
FFC0
00C0
00C0
00C0
00C0
00C0
00C0
ENDCHAR
STARTCHAR 252c
ENCODING 9516
SWIDTH 1920 0
DWIDTH 16 0
BBX 16 16 0 0
BITMAP
0000
0000
0000
0000
0000
0000
0000
0000
FFFF
FFFF
00C0
00C0
00C0
00C0
00C0
00C0
ENDCHAR
STARTCHAR 2534
ENCODING 9524
SWIDTH 1920 0
DWIDTH 16 0
BBX 16 16 0 0
BITMAP
00C0
00C0
00C0
00C0
00C0
00C0
00C0
00C0
FFFF
FFFF
0000
0000
0000
0000
0000
0000
ENDCHAR
STARTCHAR 253c
ENCODING 9532
SWIDTH 1920 0
DWIDTH 16 0
BBX 16 16 0 0
BITMAP
00C0
00C0
00C0
00C0
00C0
00C0
00C0
00C0
FFFF
FFFF
00C0
00C0
00C0
00C0
00C0
00C0
ENDCHAR
STARTCHAR 256d
ENCODING 9581
SWIDTH 1920 0
DWIDTH 16 0
BBX 16 16 0 0
BITMAP
0000
0000
0000
0000
0000
0000
0000
0000
000F
000F
0030
0030
00C0
00C0
00C0
00C0
ENDCHAR
STARTCHAR 256e
ENCODING 9582
SWIDTH 1920 0
DWIDTH 16 0
BBX 16 16 0 0
BITMAP
0000
0000
0000
0000
0000
0000
0000
0000
F000
F000
0C00
0C00
0300
0300
0300
0300
ENDCHAR
STARTCHAR 256f
ENCODING 9583
SWIDTH 1920 0
DWIDTH 16 0
BBX 16 16 0 0
BITMAP
0300
0300
0300
0300
0C00
0C00
F000
F000
0000
0000
0000
0000
0000
0000
0000
0000
ENDCHAR
STARTCHAR 2570
ENCODING 9584
SWIDTH 1920 0
DWIDTH 16 0
BBX 16 16 0 0
BITMAP
00C0
00C0
00C0
00C0
0030
0030
000F
000F
0000
0000
0000
0000
0000
0000
0000
0000
ENDCHAR
STARTCHAR 2580
ENCODING 9600
SWIDTH 1920 0
DWIDTH 16 0
BBX 16 16 0 0
BITMAP
FFFF
FFFF
FFFF
FFFF
FFFF
FFFF
FFFF
FFFF
0000
0000
0000
0000
0000
0000
0000
0000
ENDCHAR
STARTCHAR 2582
ENCODING 9602
SWIDTH 1920 0
DWIDTH 16 0
BBX 16 16 0 0
BITMAP
0000
0000
0000
0000
0000
0000
0000
0000
0000
0000
0000
0000
FFFF
FFFF
FFFF
FFFF
ENDCHAR
STARTCHAR 2583
ENCODING 9603
SWIDTH 1920 0
DWIDTH 16 0
BBX 16 16 0 0
BITMAP
0000
0000
0000
0000
0000
0000
0000
0000
0000
0000
FFFF
FFFF
FFFF
FFFF
FFFF
FFFF
ENDCHAR
STARTCHAR 2584
ENCODING 9604
SWIDTH 1920 0
DWIDTH 16 0
BBX 16 16 0 0
BITMAP
0000
0000
0000
0000
0000
0000
0000
0000
FFFF
FFFF
FFFF
FFFF
FFFF
FFFF
FFFF
FFFF
ENDCHAR
STARTCHAR 258d
ENCODING 9613
SWIDTH 1920 0
DWIDTH 16 0
BBX 16 16 0 0
BITMAP
FF00
FF00
FF00
FF00
FF00
FF00
FF00
FF00
FF00
FF00
FF00
FF00
FF00
FF00
FF00
FF00
ENDCHAR
STARTCHAR 258e
ENCODING 9614
SWIDTH 1920 0
DWIDTH 16 0
BBX 16 16 0 0
BITMAP
F000
F000
F000
F000
F000
F000
F000
F000
F000
F000
F000
F000
F000
F000
F000
F000
ENDCHAR
STARTCHAR 258f
ENCODING 9615
SWIDTH 1920 0
DWIDTH 16 0
BBX 16 16 0 0
BITMAP
C000
C000
C000
C000
C000
C000
C000
C000
C000
C000
C000
C000
C000
C000
C000
C000
ENDCHAR
STARTCHAR 2590
ENCODING 9616
SWIDTH 1920 0
DWIDTH 16 0
BBX 16 16 0 0
BITMAP
00FF
00FF
00FF
00FF
00FF
00FF
00FF
00FF
00FF
00FF
00FF
00FF
00FF
00FF
00FF
00FF
ENDCHAR
STARTCHAR 2591
ENCODING 9617
SWIDTH 1920 0
DWIDTH 16 0
BBX 16 16 0 0
BITMAP
3333
3333
CCCC
CCCC
3333
3333
CCCC
CCCC
3333
3333
CCCC
CCCC
3333
3333
CCCC
CCCC
ENDCHAR
STARTCHAR 2592
ENCODING 9618
SWIDTH 1920 0
DWIDTH 16 0
BBX 16 16 0 0
BITMAP
CCCC
CCCC
3333
3333
CCCC
CCCC
3333
3333
CCCC
CCCC
3333
3333
CCCC
CCCC
3333
3333
ENDCHAR
STARTCHAR 2593
ENCODING 9619
SWIDTH 1920 0
DWIDTH 16 0
BBX 16 16 0 0
BITMAP
CC00
CC00
3300
3300
CC00
CC00
3300
3300
CC00
CC00
3300
3300
CC00
CC00
3300
3300
ENDCHAR
STARTCHAR 2595
ENCODING 9621
SWIDTH 1920 0
DWIDTH 16 0
BBX 16 16 0 0
BITMAP
0003
0003
0003
0003
0003
0003
0003
0003
0003
0003
0003
0003
0003
0003
0003
0003
ENDCHAR
STARTCHAR 259a
ENCODING 9626
SWIDTH 1920 0
DWIDTH 16 0
BBX 16 16 0 0
BITMAP
FF00
FF00
FF00
FF00
FF00
FF00
FF00
FF00
00FF
00FF
00FF
00FF
00FF
00FF
00FF
00FF
ENDCHAR
STARTCHAR 259e
ENCODING 9630
SWIDTH 1920 0
DWIDTH 16 0
BBX 16 16 0 0
BITMAP
00FF
00FF
00FF
00FF
00FF
00FF
00FF
00FF
FF00
FF00
FF00
FF00
FF00
FF00
FF00
FF00
ENDCHAR
STARTCHAR 25a0
ENCODING 9632
SWIDTH 1920 0
DWIDTH 16 0
BBX 16 16 0 0
BITMAP
FFFF
FFFF
FFFF
FFFF
FFFF
FFFF
FFFF
FFFF
FFFF
FFFF
FFFF
FFFF
FFFF
FFFF
FFFF
FFFF
ENDCHAR
STARTCHAR 25bd
ENCODING 9661
SWIDTH 1920 0
DWIDTH 16 0
BBX 16 16 0 0
BITMAP
FFFF
FFFF
FFFF
FFFF
0000
0000
0000
0000
0000
0000
0000
0000
0000
0000
0000
0000
ENDCHAR
STARTCHAR 25c0
ENCODING 9664
SWIDTH 1920 0
DWIDTH 16 0
BBX 16 16 0 0
BITMAP
003F
003F
003F
003F
003F
003F
003F
003F
003F
003F
003F
003F
003F
003F
003F
003F
ENDCHAR
STARTCHAR 25c1
ENCODING 9665
SWIDTH 1920 0
DWIDTH 16 0
BBX 16 16 0 0
BITMAP
000F
000F
000F
000F
000F
000F
000F
000F
000F
000F
000F
000F
000F
000F
000F
000F
ENDCHAR
STARTCHAR 25cb
ENCODING 9675
SWIDTH 1920 0
DWIDTH 16 0
BBX 16 16 0 0
BITMAP
0000
0000
0FF0
0FF0
300C
300C
300C
300C
300C
300C
300C
300C
0FF0
0FF0
0000
0000
ENDCHAR
STARTCHAR 25ce
ENCODING 9678
SWIDTH 1920 0
DWIDTH 16 0
BBX 16 16 0 0
BITMAP
FFFF
FFFF
F00F
F00F
C003
C003
C003
C003
C003
C003
C003
C003
F00F
F00F
FFFF
FFFF
ENDCHAR
STARTCHAR 25cf
ENCODING 9679
SWIDTH 1920 0
DWIDTH 16 0
BBX 16 16 0 0
BITMAP
0000
0000
0FF0
0FF0
3FFC
3FFC
3FFC
3FFC
3FFC
3FFC
3FFC
3FFC
0FF0
0FF0
0000
0000
ENDCHAR
STARTCHAR 25e2
ENCODING 9698
SWIDTH 1920 0
DWIDTH 16 0
BBX 16 16 0 0
BITMAP
0003
0003
000F
000F
003F
003F
00FF
00FF
03FF
03FF
0FFF
0FFF
3FFF
3FFF
FFFF
FFFF
ENDCHAR
STARTCHAR 25e3
ENCODING 9699
SWIDTH 1920 0
DWIDTH 16 0
BBX 16 16 0 0
BITMAP
C000
C000
F000
F000
FC00
FC00
FF00
FF00
FFC0
FFC0
FFF0
FFF0
FFFC
FFFC
FFFF
FFFF
ENDCHAR
STARTCHAR 25e4
ENCODING 9700
SWIDTH 1920 0
DWIDTH 16 0
BBX 16 16 0 0
BITMAP
FFFF
FFFF
FFFC
FFFC
FFF0
FFF0
FFC0
FFC0
FF00
FF00
FC00
FC00
F000
F000
C000
C000
ENDCHAR
STARTCHAR 25e5
ENCODING 9701
SWIDTH 1920 0
DWIDTH 16 0
BBX 16 16 0 0
BITMAP
FFFF
FFFF
3FFF
3FFF
0FFF
0FFF
03FF
03FF
00FF
00FF
003F
003F
000F
000F
0003
0003
ENDCHAR
STARTCHAR 263a
ENCODING 9786
SWIDTH 1920 0
DWIDTH 16 0
BBX 16 16 0 0
BITMAP
0FF0
0FF0
300C
300C
C003
C003
CC33
CC33
C003
C003
C3C3
C3C3
300C
300C
0FF0
0FF0
ENDCHAR
STARTCHAR 263b
ENCODING 9787
SWIDTH 1920 0
DWIDTH 16 0
BBX 16 16 0 0
BITMAP
0FF0
0FF0
3FFC
3FFC
FFFF
FFFF
F3CF
F3CF
FFFF
FFFF
FC3F
FC3F
3FFC
3FFC
0FF0
0FF0
ENDCHAR
STARTCHAR 2660
ENCODING 9824
SWIDTH 1920 0
DWIDTH 16 0
BBX 16 16 0 0
BITMAP
00C0
00C0
03F0
03F0
0FFC
0FFC
3FFF
3FFF
3FFF
3FFF
03F0
03F0
0FFC
0FFC
0000
0000
ENDCHAR
STARTCHAR 2663
ENCODING 9827
SWIDTH 1920 0
DWIDTH 16 0
BBX 16 16 0 0
BITMAP
00C0
00C0
03F0
03F0
0CCC
0CCC
3FFF
3FFF
0CCC
0CCC
00C0
00C0
00C0
00C0
0000
0000
ENDCHAR
STARTCHAR 2665
ENCODING 9829
SWIDTH 1920 0
DWIDTH 16 0
BBX 16 16 0 0
BITMAP
0F3C
0F3C
3FFF
3FFF
3FFF
3FFF
3FFF
3FFF
0FFC
0FFC
03F0
03F0
00C0
00C0
0000
0000
ENDCHAR
STARTCHAR 2666
ENCODING 9830
SWIDTH 1920 0
DWIDTH 16 0
BBX 16 16 0 0
BITMAP
00C0
00C0
03F0
03F0
0FFC
0FFC
3FFF
3FFF
0FFC
0FFC
03F0
03F0
00C0
00C0
0000
0000
ENDCHAR
STARTCHAR 3001
ENCODING 12289
SWIDTH 1920 0
DWIDTH 16 0
BBX 16 16 0 0
BITMAP
0000
0000
0000
0000
0000
0000
0000
0000
3000
3000
0C00
0C00
0300
0300
0000
0000
ENDCHAR
STARTCHAR 3002
ENCODING 12290
SWIDTH 1920 0
DWIDTH 16 0
BBX 16 16 0 0
BITMAP
0000
0000
0000
0000
0000
0000
0000
0000
3F00
3F00
3300
3300
3F00
3F00
0000
0000
ENDCHAR
STARTCHAR 300c
ENCODING 12300
SWIDTH 1920 0
DWIDTH 16 0
BBX 16 16 0 0
BITMAP
03FC
03FC
0300
0300
0300
0300
0300
0300
0000
0000
0000
0000
0000
0000
0000
0000
ENDCHAR
STARTCHAR 300d
ENCODING 12301
SWIDTH 1920 0
DWIDTH 16 0
BBX 16 16 0 0
BITMAP
0000
0000
0000
0000
0000
0000
00C0
00C0
00C0
00C0
00C0
00C0
3FC0
3FC0
0000
0000
ENDCHAR
STARTCHAR 300e
ENCODING 12302
SWIDTH 1920 0
DWIDTH 16 0
BBX 16 16 0 0
BITMAP
03FC
03FC
0300
0300
0300
0300
0300
0300
0000
0000
0000
0000
0000
0000
0000
0000
ENDCHAR
STARTCHAR 300f
ENCODING 12303
SWIDTH 1920 0
DWIDTH 16 0
BBX 16 16 0 0
BITMAP
0000
0000
0000
0000
0000
0000
0000
0000
00C0
00C0
00C0
00C0
00C0
00C0
3FC0
3FC0
ENDCHAR
STARTCHAR 301d
ENCODING 12317
SWIDTH 1920 0
DWIDTH 16 0
BBX 16 16 0 0
BITMAP
0C00
0C00
C300
C300
3000
3000
0000
0000
0000
0000
0000
0000
0000
0000
0000
0000
ENDCHAR
STARTCHAR 3041
ENCODING 12353
SWIDTH 1920 0
DWIDTH 16 0
BBX 16 16 0 0
BITMAP
0000
0000
0C00
0C00
3F00
3F00
0C00
0C00
3FC0
3FC0
C330
C330
3CC0
3CC0
0000
0000
ENDCHAR
STARTCHAR 3042
ENCODING 12354
SWIDTH 1920 0
DWIDTH 16 0
BBX 16 16 0 0
BITMAP
0C00
0C00
FFF0
FFF0
0C00
0C00
3FF0
3FF0
CCCC
CCCC
C30C
C30C
3C30
3C30
0000
0000
ENDCHAR
STARTCHAR 3043
ENCODING 12355
SWIDTH 1920 0
DWIDTH 16 0
BBX 16 16 0 0
BITMAP
0000
0000
0000
0000
30C0
30C0
3030
3030
3030
3030
3030
3030
0C00
0C00
0000
0000
ENDCHAR
STARTCHAR 3044
ENCODING 12356
SWIDTH 1920 0
DWIDTH 16 0
BBX 16 16 0 0
BITMAP
C030
C030
C00C
C00C
C00C
C00C
C00C
C00C
C00C
C00C
C300
C300
3C00
3C00
0000
0000
ENDCHAR
STARTCHAR 3045
ENCODING 12357
SWIDTH 1920 0
DWIDTH 16 0
BBX 16 16 0 0
BITMAP
0000
0000
0C00
0C00
0000
0000
3FC0
3FC0
0030
0030
0030
0030
00C0
00C0
0000
0000
ENDCHAR
STARTCHAR 3046
ENCODING 12358
SWIDTH 1920 0
DWIDTH 16 0
BBX 16 16 0 0
BITMAP
03C0
03C0
0000
0000
0FF0
0FF0
300C
300C
000C
000C
0030
0030
00C0
00C0
0000
0000
ENDCHAR
STARTCHAR 3047
ENCODING 12359
SWIDTH 1920 0
DWIDTH 16 0
BBX 16 16 0 0
BITMAP
0000
0000
0C00
0C00
0000
0000
3FC0
3FC0
0300
0300
0F00
0F00
30F0
30F0
0000
0000
ENDCHAR
STARTCHAR 3048
ENCODING 12360
SWIDTH 1920 0
DWIDTH 16 0
BBX 16 16 0 0
BITMAP
0300
0300
0000
0000
3FF0
3FF0
00C0
00C0
0300
0300
0CC0
0CC0
303C
303C
0000
0000
ENDCHAR
STARTCHAR 3049
ENCODING 12361
SWIDTH 1920 0
DWIDTH 16 0
BBX 16 16 0 0
BITMAP
0000
0000
0C00
0C00
3F30
3F30
0C00
0C00
3FC0
3FC0
CC30
CC30
3CC0
3CC0
0000
0000
ENDCHAR
STARTCHAR 304a
ENCODING 12362
SWIDTH 1920 0
DWIDTH 16 0
BBX 16 16 0 0
BITMAP
0C00
0C00
FFF3
FFF3
0C03
0C03
3FF0
3FF0
CC0C
CC0C
CC0C
CC0C
3C30
3C30
0000
0000
ENDCHAR
STARTCHAR 304b
ENCODING 12363
SWIDTH 1920 0
DWIDTH 16 0
BBX 16 16 0 0
BITMAP
0C0C
0C0C
FFC3
FFC3
0C33
0C33
0C30
0C30
0C30
0C30
0C30
0C30
30C0
30C0
0000
0000
ENDCHAR
STARTCHAR 304d
ENCODING 12365
SWIDTH 1920 0
DWIDTH 16 0
BBX 16 16 0 0
BITMAP
0300
0300
3FFC
3FFC
00C0
00C0
3FFC
3FFC
0030
0030
000C
000C
3C00
3C00
03C0
03C0
ENDCHAR
STARTCHAR 304f
ENCODING 12367
SWIDTH 1920 0
DWIDTH 16 0
BBX 16 16 0 0
BITMAP
00F0
00F0
03C0
03C0
0F00
0F00
3C00
3C00
0F00
0F00
03C0
03C0
00F0
00F0
0000
0000
ENDCHAR
STARTCHAR 3051
ENCODING 12369
SWIDTH 1920 0
DWIDTH 16 0
BBX 16 16 0 0
BITMAP
C030
C030
CFFC
CFFC
C030
C030
C030
C030
C030
C030
C030
C030
30C0
30C0
0000
0000
ENDCHAR
STARTCHAR 3053
ENCODING 12371
SWIDTH 1920 0
DWIDTH 16 0
BBX 16 16 0 0
BITMAP
0000
0000
FFF0
FFF0
000C
000C
0000
0000
0000
0000
C000
C000
3FFC
3FFC
0000
0000
ENDCHAR
STARTCHAR 3055
ENCODING 12373
SWIDTH 1920 0
DWIDTH 16 0
BBX 16 16 0 0
BITMAP
0C00
0C00
FFFC
FFFC
0300
0300
00C0
00C0
3030
3030
0C00
0C00
03C0
03C0
0000
0000
ENDCHAR
STARTCHAR 3057
ENCODING 12375
SWIDTH 1920 0
DWIDTH 16 0
BBX 16 16 0 0
BITMAP
3000
3000
3000
3000
3000
3000
3000
3000
3030
3030
3030
3030
0FC0
0FC0
0000
0000
ENDCHAR
STARTCHAR 3059
ENCODING 12377
SWIDTH 1920 0
DWIDTH 16 0
BBX 16 16 0 0
BITMAP
00C0
00C0
FFFC
FFFC
00C0
00C0
0FC0
0FC0
30C0
30C0
0FC0
0FC0
00C0
00C0
0300
0300
ENDCHAR
STARTCHAR 305b
ENCODING 12379
SWIDTH 1920 0
DWIDTH 16 0
BBX 16 16 0 0
BITMAP
3030
3030
3030
3030
FFFC
FFFC
3030
3030
33C0
33C0
3000
3000
0FFC
0FFC
0000
0000
ENDCHAR
STARTCHAR 305d
ENCODING 12381
SWIDTH 1920 0
DWIDTH 16 0
BBX 16 16 0 0
BITMAP
0FF0
0FF0
00C0
00C0
0300
0300
3FFC
3FFC
00C0
00C0
0300
0300
00F0
00F0
0000
0000
ENDCHAR
STARTCHAR 305f
ENCODING 12383
SWIDTH 1920 0
DWIDTH 16 0
BBX 16 16 0 0
BITMAP
0C00
0C00
FFF0
FFF0
3000
3000
33FC
33FC
C000
C000
CC00
CC00
CFFC
CFFC
0000
0000
ENDCHAR
STARTCHAR 3061
ENCODING 12385
SWIDTH 1920 0
DWIDTH 16 0
BBX 16 16 0 0
BITMAP
0300
0300
FFFC
FFFC
0C00
0C00
3FF0
3FF0
000C
000C
000C
000C
FFF0
FFF0
0000
0000
ENDCHAR
STARTCHAR 3063
ENCODING 12387
SWIDTH 1920 0
DWIDTH 16 0
BBX 16 16 0 0
BITMAP
0000
0000
0000
0000
0000
0000
FFC0
FFC0
0030
0030
0030
0030
03C0
03C0
0000
0000
ENDCHAR
STARTCHAR 3064
ENCODING 12388
SWIDTH 1920 0
DWIDTH 16 0
BBX 16 16 0 0
BITMAP
C000
C000
3FF0
3FF0
000C
000C
000C
000C
000C
000C
0030
0030
03C0
03C0
0000
0000
ENDCHAR
STARTCHAR 3066
ENCODING 12390
SWIDTH 1920 0
DWIDTH 16 0
BBX 16 16 0 0
BITMAP
FFFC
FFFC
0030
0030
00C0
00C0
0300
0300
0300
0300
00C0
00C0
0030
0030
0000
0000
ENDCHAR
STARTCHAR 3068
ENCODING 12392
SWIDTH 1920 0
DWIDTH 16 0
BBX 16 16 0 0
BITMAP
0C00
0C00
0C0C
0C0C
0CF0
0CF0
0F00
0F00
3000
3000
C000
C000
3FFC
3FFC
0000
0000
ENDCHAR
STARTCHAR 306a
ENCODING 12394
SWIDTH 1920 0
DWIDTH 16 0
BBX 16 16 0 0
BITMAP
0C00
0C00
FFCC
FFCC
3003
3003
3030
3030
C3F0
C3F0
CC3C
CC3C
03F0
03F0
0000
0000
ENDCHAR
STARTCHAR 306b
ENCODING 12395
SWIDTH 1920 0
DWIDTH 16 0
BBX 16 16 0 0
BITMAP
C3FC
C3FC
C000
C000
C000
C000
C000
C000
C000
C000
C300
C300
F3FC
F3FC
0000
0000
ENDCHAR
STARTCHAR 306c
ENCODING 12396
SWIDTH 1920 0
DWIDTH 16 0
BBX 16 16 0 0
BITMAP
0030
0030
3030
3030
3FF0
3FF0
30CC
30CC
CF0C
CF0C
C33F
C33F
3C3C
3C3C
0000
0000
ENDCHAR
STARTCHAR 306d
ENCODING 12397
SWIDTH 1920 0
DWIDTH 16 0
BBX 16 16 0 0
BITMAP
0C00
0C00
FC30
FC30
0CCC
0CCC
0F0C
0F0C
3C3C
3C3C
CCCF
CCCF
0C3C
0C3C
0000
0000
ENDCHAR
STARTCHAR 306e
ENCODING 12398
SWIDTH 1920 0
DWIDTH 16 0
BBX 16 16 0 0
BITMAP
0FC0
0FC0
3330
3330
C30C
C30C
C30C
C30C
C30C
C30C
C30C
C30C
3C30
3C30
0000
0000
ENDCHAR
STARTCHAR 306f
ENCODING 12399
SWIDTH 1920 0
DWIDTH 16 0
BBX 16 16 0 0
BITMAP
C030
C030
C3FC
C3FC
C030
C030
C030
C030
C3F0
C3F0
CC3C
CC3C
33F0
33F0
0000
0000
ENDCHAR
STARTCHAR 3072
ENCODING 12402
SWIDTH 1920 0
DWIDTH 16 0
BBX 16 16 0 0
BITMAP
FC00
FC00
0C3C
0C3C
3033
3033
C030
C030
C030
C030
C0C0
C0C0
3F00
3F00
0000
0000
ENDCHAR
STARTCHAR 3075
ENCODING 12405
SWIDTH 1920 0
DWIDTH 16 0
BBX 16 16 0 0
BITMAP
0FC0
0FC0
0000
0000
0300
0300
30CC
30CC
30CC
30CC
C0CC
C0CC
0F00
0F00
0000
0000
ENDCHAR
STARTCHAR 3078
ENCODING 12408
SWIDTH 1920 0
DWIDTH 16 0
BBX 16 16 0 0
BITMAP
0000
0000
0C00
0C00
3300
3300
C0C0
C0C0
0030
0030
000C
000C
000C
000C
0000
0000
ENDCHAR
STARTCHAR 307b
ENCODING 12411
SWIDTH 1920 0
DWIDTH 16 0
BBX 16 16 0 0
BITMAP
C3FC
C3FC
C030
C030
C3FC
C3FC
C030
C030
C3F0
C3F0
CC3C
CC3C
F3F0
F3F0
0000
0000
ENDCHAR
STARTCHAR 307e
ENCODING 12414
SWIDTH 1920 0
DWIDTH 16 0
BBX 16 16 0 0
BITMAP
0300
0300
3FFC
3FFC
0300
0300
3FFC
3FFC
0300
0300
3F00
3F00
C3F0
C3F0
3F0C
3F0C
ENDCHAR
STARTCHAR 307f
ENCODING 12415
SWIDTH 1920 0
DWIDTH 16 0
BBX 16 16 0 0
BITMAP
3F00
3F00
0300
0300
0330
0330
3FFC
3FFC
C330
C330
C330
C330
3C30
3C30
0000
0000
ENDCHAR
STARTCHAR 3080
ENCODING 12416
SWIDTH 1920 0
DWIDTH 16 0
BBX 16 16 0 0
BITMAP
0C00
0C00
FFF3
FFF3
0C03
0C03
3C00
3C00
CC00
CC00
3C0C
3C0C
0FFC
0FFC
0000
0000
ENDCHAR
STARTCHAR 3081
ENCODING 12417
SWIDTH 1920 0
DWIDTH 16 0
BBX 16 16 0 0
BITMAP
0030
0030
3030
3030
3FF0
3FF0
30CC
30CC
CF0C
CF0C
C30C
C30C
3C30
3C30
0000
0000
ENDCHAR
STARTCHAR 3082
ENCODING 12418
SWIDTH 1920 0
DWIDTH 16 0
BBX 16 16 0 0
BITMAP
0C00
0C00
FFC0
FFC0
0C00
0C00
FFC0
FFC0
0C0C
0C0C
0C0C
0C0C
03F0
03F0
0000
0000
ENDCHAR
STARTCHAR 3083
ENCODING 12419
SWIDTH 1920 0
DWIDTH 16 0
BBX 16 16 0 0
BITMAP
0000
0000
0000
0000
33C0
33C0
FC30
FC30
0CC0
0CC0
0C00
0C00
0300
0300
0000
0000
ENDCHAR
STARTCHAR 3084
ENCODING 12420
SWIDTH 1920 0
DWIDTH 16 0
BBX 16 16 0 0
BITMAP
30C0
30C0
30F0
30F0
0F0C
0F0C
FC0C
FC0C
0C30
0C30
0300
0300
0300
0300
00C0
00C0
ENDCHAR
STARTCHAR 3085
ENCODING 12421
SWIDTH 1920 0
DWIDTH 16 0
BBX 16 16 0 0
BITMAP
0000
0000
0000
0000
0300
0300
CFC0
CFC0
F330
F330
C3C0
C3C0
0F00
0F00
0000
0000
ENDCHAR
STARTCHAR 3086
ENCODING 12422
SWIDTH 1920 0
DWIDTH 16 0
BBX 16 16 0 0
BITMAP
00C0
00C0
C3F0
C3F0
CCCC
CCCC
F0CC
F0CC
F0CC
F0CC
C0F0
C0F0
03C0
03C0
0000
0000
ENDCHAR
STARTCHAR 3087
ENCODING 12423
SWIDTH 1920 0
DWIDTH 16 0
BBX 16 16 0 0
BITMAP
0000
0000
0000
0000
0C00
0C00
0FC0
0FC0
0C00
0C00
3FC0
3FC0
3C00
3C00
0000
0000
ENDCHAR
STARTCHAR 3088
ENCODING 12424
SWIDTH 1920 0
DWIDTH 16 0
BBX 16 16 0 0
BITMAP
00C0
00C0
00FC
00FC
00C0
00C0
00C0
00C0
3FC0
3FC0
C0FC
C0FC
3FC0
3FC0
0000
0000
ENDCHAR
STARTCHAR 3089
ENCODING 12425
SWIDTH 1920 0
DWIDTH 16 0
BBX 16 16 0 0
BITMAP
3C00
3C00
0000
0000
C3F0
C3F0
CC0C
CC0C
F00C
F00C
C00C
C00C
03F0
03F0
0000
0000
ENDCHAR
STARTCHAR 308a
ENCODING 12426
SWIDTH 1920 0
DWIDTH 16 0
BBX 16 16 0 0
BITMAP
3030
3030
3030
3030
3030
3030
3C30
3C30
0030
0030
00C0
00C0
0300
0300
0000
0000
ENDCHAR
STARTCHAR 308b
ENCODING 12427
SWIDTH 1920 0
DWIDTH 16 0
BBX 16 16 0 0
BITMAP
3FF0
3FF0
00C0
00C0
0300
0300
0FF0
0FF0
300C
300C
03CC
03CC
0C30
0C30
03C0
03C0
ENDCHAR
STARTCHAR 308c
ENCODING 12428
SWIDTH 1920 0
DWIDTH 16 0
BBX 16 16 0 0
BITMAP
0C00
0C00
FC3C
FC3C
0CF0
0CF0
0F30
0F30
3C30
3C30
CC30
CC30
0C0C
0C0C
0000
0000
ENDCHAR
STARTCHAR 308d
ENCODING 12429
SWIDTH 1920 0
DWIDTH 16 0
BBX 16 16 0 0
BITMAP
3FF0
3FF0
00C0
00C0
0300
0300
0CF0
0CF0
300C
300C
000C
000C
0C30
0C30
03C0
03C0
ENDCHAR
STARTCHAR 308f
ENCODING 12431
SWIDTH 1920 0
DWIDTH 16 0
BBX 16 16 0 0
BITMAP
0C00
0C00
FC30
FC30
0CCC
0CCC
0F0C
0F0C
3C0C
3C0C
CC0C
CC0C
0C30
0C30
0000
0000
ENDCHAR
STARTCHAR 3092
ENCODING 12434
SWIDTH 1920 0
DWIDTH 16 0
BBX 16 16 0 0
BITMAP
0300
0300
FFFC
FFFC
0C00
0C00
3F30
3F30
CFC0
CFC0
30C0
30C0
3FFC
3FFC
0000
0000
ENDCHAR
STARTCHAR 3093
ENCODING 12435
SWIDTH 1920 0
DWIDTH 16 0
BBX 16 16 0 0
BITMAP
0300
0300
0C00
0C00
0C00
0C00
3F00
3F00
30C0
30C0
C0C0
C0C0
C03C
C03C
0000
0000
ENDCHAR
STARTCHAR 309b
ENCODING 12443
SWIDTH 1920 0
DWIDTH 16 0
BBX 16 16 0 0
BITMAP
0300
0300
30C0
30C0
0C00
0C00
0000
0000
0000
0000
0000
0000
0000
0000
0000
0000
ENDCHAR
STARTCHAR 309c
ENCODING 12444
SWIDTH 1920 0
DWIDTH 16 0
BBX 16 16 0 0
BITMAP
3F00
3F00
3300
3300
3F00
3F00
0000
0000
0000
0000
0000
0000
0000
0000
0000
0000
ENDCHAR
STARTCHAR 30a1
ENCODING 12449
SWIDTH 1920 0
DWIDTH 16 0
BBX 16 16 0 0
BITMAP
0000
0000
0000
0000
0FFC
0FFC
000C
000C
00F0
00F0
00C0
00C0
0300
0300
0000
0000
ENDCHAR
STARTCHAR 30a2
ENCODING 12450
SWIDTH 1920 0
DWIDTH 16 0
BBX 16 16 0 0
BITMAP
0FFC
0FFC
000C
000C
00CC
00CC
00F0
00F0
00C0
00C0
00C0
00C0
0300
0300
0000
0000
ENDCHAR
STARTCHAR 30a3
ENCODING 12451
SWIDTH 1920 0
DWIDTH 16 0
BBX 16 16 0 0
BITMAP
0000
0000
0000
0000
0030
0030
00C0
00C0
03C0
03C0
0CC0
0CC0
00C0
00C0
0000
0000
ENDCHAR
STARTCHAR 30a4
ENCODING 12452
SWIDTH 1920 0
DWIDTH 16 0
BBX 16 16 0 0
BITMAP
000C
000C
0030
0030
00C0
00C0
03C0
03C0
0CC0
0CC0
00C0
00C0
00C0
00C0
0000
0000
ENDCHAR
STARTCHAR 30a5
ENCODING 12453
SWIDTH 1920 0
DWIDTH 16 0
BBX 16 16 0 0
BITMAP
0000
0000
0000
0000
00C0
00C0
0FFC
0FFC
0C0C
0C0C
000C
000C
00F0
00F0
0000
0000
ENDCHAR
STARTCHAR 30a6
ENCODING 12454
SWIDTH 1920 0
DWIDTH 16 0
BBX 16 16 0 0
BITMAP
00C0
00C0
0FFC
0FFC
0C0C
0C0C
0C0C
0C0C
000C
000C
0030
0030
00C0
00C0
0000
0000
ENDCHAR
STARTCHAR 30a7
ENCODING 12455
SWIDTH 1920 0
DWIDTH 16 0
BBX 16 16 0 0
BITMAP
0000
0000
0000
0000
0000
0000
0FFC
0FFC
00C0
00C0
00C0
00C0
0FFC
0FFC
0000
0000
ENDCHAR
STARTCHAR 30a8
ENCODING 12456
SWIDTH 1920 0
DWIDTH 16 0
BBX 16 16 0 0
BITMAP
0000
0000
0FFC
0FFC
00C0
00C0
00C0
00C0
00C0
00C0
00C0
00C0
0FFC
0FFC
0000
0000
ENDCHAR
STARTCHAR 30a9
ENCODING 12457
SWIDTH 1920 0
DWIDTH 16 0
BBX 16 16 0 0
BITMAP
0000
0000
0000
0000
0030
0030
0FFC
0FFC
00F0
00F0
0330
0330
0C30
0C30
0000
0000
ENDCHAR
STARTCHAR 30aa
ENCODING 12458
SWIDTH 1920 0
DWIDTH 16 0
BBX 16 16 0 0
BITMAP
0030
0030
0FFC
0FFC
0030
0030
00F0
00F0
0330
0330
0C30
0C30
0030
0030
0000
0000
ENDCHAR
STARTCHAR 30ab
ENCODING 12459
SWIDTH 1920 0
DWIDTH 16 0
BBX 16 16 0 0
BITMAP
0300
0300
0FFC
0FFC
030C
030C
030C
030C
030C
030C
030C
030C
0C30
0C30
0000
0000
ENDCHAR
STARTCHAR 30ad
ENCODING 12461
SWIDTH 1920 0
DWIDTH 16 0
BBX 16 16 0 0
BITMAP
00C0
00C0
0FFC
0FFC
00C0
00C0
0FFC
0FFC
00C0
00C0
00C0
00C0
00C0
00C0
0000
0000
ENDCHAR
STARTCHAR 30af
ENCODING 12463
SWIDTH 1920 0
DWIDTH 16 0
BBX 16 16 0 0
BITMAP
0000
0000
03FC
03FC
030C
030C
0C0C
0C0C
000C
000C
0030
0030
03C0
03C0
0000
0000
ENDCHAR
STARTCHAR 30b1
ENCODING 12465
SWIDTH 1920 0
DWIDTH 16 0
BBX 16 16 0 0
BITMAP
0300
0300
03FC
03FC
0C30
0C30
0030
0030
0030
0030
0030
0030
00C0
00C0
0000
0000
ENDCHAR
STARTCHAR 30b3
ENCODING 12467
SWIDTH 1920 0
DWIDTH 16 0
BBX 16 16 0 0
BITMAP
0000
0000
0FFC
0FFC
000C
000C
000C
000C
000C
000C
000C
000C
0FFC
0FFC
0000
0000
ENDCHAR
STARTCHAR 30b5
ENCODING 12469
SWIDTH 1920 0
DWIDTH 16 0
BBX 16 16 0 0
BITMAP
0330
0330
0FFC
0FFC
0330
0330
0330
0330
0030
0030
00C0
00C0
0300
0300
0000
0000
ENDCHAR
STARTCHAR 30b7
ENCODING 12471
SWIDTH 1920 0
DWIDTH 16 0
BBX 16 16 0 0
BITMAP
0000
0000
0F00
0F00
000C
000C
0F0C
0F0C
000C
000C
0030
0030
0FC0
0FC0
0000
0000
ENDCHAR
STARTCHAR 30b9
ENCODING 12473
SWIDTH 1920 0
DWIDTH 16 0
BBX 16 16 0 0
BITMAP
0000
0000
0FFC
0FFC
000C
000C
0030
0030
00C0
00C0
0330
0330
0C0C
0C0C
0000
0000
ENDCHAR
STARTCHAR 30bb
ENCODING 12475
SWIDTH 1920 0
DWIDTH 16 0
BBX 16 16 0 0
BITMAP
0300
0300
0FFC
0FFC
030C
030C
0330
0330
0300
0300
0300
0300
00FC
00FC
0000
0000
ENDCHAR
STARTCHAR 30bd
ENCODING 12477
SWIDTH 1920 0
DWIDTH 16 0
BBX 16 16 0 0
BITMAP
0000
0000
0C0C
0C0C
0C0C
0C0C
030C
030C
000C
000C
0030
0030
03C0
03C0
0000
0000
ENDCHAR
STARTCHAR 30bf
ENCODING 12479
SWIDTH 1920 0
DWIDTH 16 0
BBX 16 16 0 0
BITMAP
0000
0000
03FC
03FC
030C
030C
0CCC
0CCC
003C
003C
0030
0030
03C0
03C0
0000
0000
ENDCHAR
STARTCHAR 30c1
ENCODING 12481
SWIDTH 1920 0
DWIDTH 16 0
BBX 16 16 0 0
BITMAP
0030
0030
0FC0
0FC0
00C0
00C0
0FFC
0FFC
00C0
00C0
00C0
00C0
0300
0300
0000
0000
ENDCHAR
STARTCHAR 30c3
ENCODING 12483
SWIDTH 1920 0
DWIDTH 16 0
BBX 16 16 0 0
BITMAP
0000
0000
0000
0000
0000
0000
0CCC
0CCC
0CCC
0CCC
000C
000C
00F0
00F0
0000
0000
ENDCHAR
STARTCHAR 30c4
ENCODING 12484
SWIDTH 1920 0
DWIDTH 16 0
BBX 16 16 0 0
BITMAP
0000
0000
0CCC
0CCC
0CCC
0CCC
0CCC
0CCC
000C
000C
0030
0030
00C0
00C0
0000
0000
ENDCHAR
STARTCHAR 30c6
ENCODING 12486
SWIDTH 1920 0
DWIDTH 16 0
BBX 16 16 0 0
BITMAP
03F0
03F0
0000
0000
0FFC
0FFC
00C0
00C0
00C0
00C0
00C0
00C0
0300
0300
0000
0000
ENDCHAR
STARTCHAR 30c8
ENCODING 12488
SWIDTH 1920 0
DWIDTH 16 0
BBX 16 16 0 0
BITMAP
0300
0300
0300
0300
0300
0300
03C0
03C0
0330
0330
0300
0300
0300
0300
0000
0000
ENDCHAR
STARTCHAR 30ca
ENCODING 12490
SWIDTH 1920 0
DWIDTH 16 0
BBX 16 16 0 0
BITMAP
00C0
00C0
00C0
00C0
0FFC
0FFC
00C0
00C0
00C0
00C0
0300
0300
0C00
0C00
0000
0000
ENDCHAR
STARTCHAR 30cb
ENCODING 12491
SWIDTH 1920 0
DWIDTH 16 0
BBX 16 16 0 0
BITMAP
0000
0000
03F0
03F0
0000
0000
0000
0000
0000
0000
0000
0000
0FFC
0FFC
0000
0000
ENDCHAR
STARTCHAR 30cc
ENCODING 12492
SWIDTH 1920 0
DWIDTH 16 0
BBX 16 16 0 0
BITMAP
0000
0000
0FFC
0FFC
000C
000C
0330
0330
00C0
00C0
0330
0330
0C00
0C00
0000
0000
ENDCHAR
STARTCHAR 30cd
ENCODING 12493
SWIDTH 1920 0
DWIDTH 16 0
BBX 16 16 0 0
BITMAP
00C0
00C0
0FFC
0FFC
0030
0030
00C0
00C0
03F0
03F0
0CCC
0CCC
00C0
00C0
0000
0000
ENDCHAR
STARTCHAR 30ce
ENCODING 12494
SWIDTH 1920 0
DWIDTH 16 0
BBX 16 16 0 0
BITMAP
0030
0030
0030
0030
0030
0030
0030
0030
0030
0030
00C0
00C0
0300
0300
0000
0000
ENDCHAR
STARTCHAR 30cf
ENCODING 12495
SWIDTH 1920 0
DWIDTH 16 0
BBX 16 16 0 0
BITMAP
0000
0000
00C0
00C0
0030
0030
0C0C
0C0C
0C0C
0C0C
0C0C
0C0C
0C0C
0C0C
0000
0000
ENDCHAR
STARTCHAR 30d2
ENCODING 12498
SWIDTH 1920 0
DWIDTH 16 0
BBX 16 16 0 0
BITMAP
0C00
0C00
0C00
0C00
0FFC
0FFC
0C00
0C00
0C00
0C00
0C00
0C00
03FC
03FC
0000
0000
ENDCHAR
STARTCHAR 30d5
ENCODING 12501
SWIDTH 1920 0
DWIDTH 16 0
BBX 16 16 0 0
BITMAP
0000
0000
0FFC
0FFC
000C
000C
000C
000C
000C
000C
0030
0030
03C0
03C0
0000
0000
ENDCHAR
STARTCHAR 30d8
ENCODING 12504
SWIDTH 1920 0
DWIDTH 16 0
BBX 16 16 0 0
BITMAP
0000
0000
0300
0300
0CC0
0CC0
0030
0030
000C
000C
000C
000C
0000
0000
0000
0000
ENDCHAR
STARTCHAR 30db
ENCODING 12507
SWIDTH 1920 0
DWIDTH 16 0
BBX 16 16 0 0
BITMAP
00C0
00C0
0FFC
0FFC
00C0
00C0
00C0
00C0
0CCC
0CCC
0CCC
0CCC
00C0
00C0
0000
0000
ENDCHAR
STARTCHAR 30de
ENCODING 12510
SWIDTH 1920 0
DWIDTH 16 0
BBX 16 16 0 0
BITMAP
0000
0000
0FFC
0FFC
000C
000C
000C
000C
0330
0330
00C0
00C0
0030
0030
0000
0000
ENDCHAR
STARTCHAR 30df
ENCODING 12511
SWIDTH 1920 0
DWIDTH 16 0
BBX 16 16 0 0
BITMAP
0000
0000
03F0
03F0
0000
0000
03F0
03F0
0000
0000
0FF0
0FF0
000C
000C
0000
0000
ENDCHAR
STARTCHAR 30e0
ENCODING 12512
SWIDTH 1920 0
DWIDTH 16 0
BBX 16 16 0 0
BITMAP
0000
0000
00C0
00C0
0300
0300
0C00
0C00
0C0C
0C0C
0FFC
0FFC
000C
000C
0000
0000
ENDCHAR
STARTCHAR 30e1
ENCODING 12513
SWIDTH 1920 0
DWIDTH 16 0
BBX 16 16 0 0
BITMAP
0000
0000
000C
000C
000C
000C
0330
0330
00C0
00C0
0330
0330
0C00
0C00
0000
0000
ENDCHAR
STARTCHAR 30e2
ENCODING 12514
SWIDTH 1920 0
DWIDTH 16 0
BBX 16 16 0 0
BITMAP
0000
0000
0FFC
0FFC
0300
0300
0FFC
0FFC
0300
0300
0300
0300
00FC
00FC
0000
0000
ENDCHAR
STARTCHAR 30e3
ENCODING 12515
SWIDTH 1920 0
DWIDTH 16 0
BBX 16 16 0 0
BITMAP
0000
0000
0000
0000
0300
0300
0FFC
0FFC
030C
030C
0330
0330
0300
0300
0000
0000
ENDCHAR
STARTCHAR 30e4
ENCODING 12516
SWIDTH 1920 0
DWIDTH 16 0
BBX 16 16 0 0
BITMAP
0300
0300
0300
0300
0FFC
0FFC
030C
030C
0330
0330
0300
0300
0300
0300
0000
0000
ENDCHAR
STARTCHAR 30e5
ENCODING 12517
SWIDTH 1920 0
DWIDTH 16 0
BBX 16 16 0 0
BITMAP
0000
0000
0000
0000
0000
0000
03F0
03F0
0030
0030
0030
0030
0FFC
0FFC
0000
0000
ENDCHAR
STARTCHAR 30e6
ENCODING 12518
SWIDTH 1920 0
DWIDTH 16 0
BBX 16 16 0 0
BITMAP
0000
0000
03F0
03F0
0030
0030
0030
0030
0030
0030
0030
0030
0FFC
0FFC
0000
0000
ENDCHAR
STARTCHAR 30e7
ENCODING 12519
SWIDTH 1920 0
DWIDTH 16 0
BBX 16 16 0 0
BITMAP
0000
0000
0000
0000
0FF0
0FF0
0030
0030
0FF0
0FF0
0030
0030
0FF0
0FF0
0000
0000
ENDCHAR
STARTCHAR 30e8
ENCODING 12520
SWIDTH 1920 0
DWIDTH 16 0
BBX 16 16 0 0
BITMAP
0000
0000
0FFC
0FFC
000C
000C
0FFC
0FFC
000C
000C
000C
000C
0FFC
0FFC
0000
0000
ENDCHAR
STARTCHAR 30e9
ENCODING 12521
SWIDTH 1920 0
DWIDTH 16 0
BBX 16 16 0 0
BITMAP
03F0
03F0
0000
0000
0FFC
0FFC
000C
000C
000C
000C
0030
0030
00C0
00C0
0000
0000
ENDCHAR
STARTCHAR 30ea
ENCODING 12522
SWIDTH 1920 0
DWIDTH 16 0
BBX 16 16 0 0
BITMAP
0C30
0C30
0C30
0C30
0C30
0C30
0C30
0C30
0030
0030
00C0
00C0
0300
0300
0000
0000
ENDCHAR
STARTCHAR 30eb
ENCODING 12523
SWIDTH 1920 0
DWIDTH 16 0
BBX 16 16 0 0
BITMAP
0000
0000
00C0
00C0
0CC0
0CC0
0CC0
0CC0
0CCC
0CCC
0CCC
0CCC
0CF0
0CF0
0000
0000
ENDCHAR
STARTCHAR 30ec
ENCODING 12524
SWIDTH 1920 0
DWIDTH 16 0
BBX 16 16 0 0
BITMAP
0000
0000
0C00
0C00
0C00
0C00
0C0C
0C0C
0C30
0C30
0CC0
0CC0
0F00
0F00
0000
0000
ENDCHAR
STARTCHAR 30ed
ENCODING 12525
SWIDTH 1920 0
DWIDTH 16 0
BBX 16 16 0 0
BITMAP
0000
0000
0FFC
0FFC
0C0C
0C0C
0C0C
0C0C
0C0C
0C0C
0C0C
0C0C
0FFC
0FFC
0000
0000
ENDCHAR
STARTCHAR 30ef
ENCODING 12527
SWIDTH 1920 0
DWIDTH 16 0
BBX 16 16 0 0
BITMAP
0000
0000
0FFC
0FFC
0C0C
0C0C
0C0C
0C0C
000C
000C
0030
0030
00C0
00C0
0000
0000
ENDCHAR
STARTCHAR 30f2
ENCODING 12530
SWIDTH 1920 0
DWIDTH 16 0
BBX 16 16 0 0
BITMAP
0000
0000
0FFC
0FFC
000C
000C
0FFC
0FFC
000C
000C
0030
0030
00C0
00C0
0000
0000
ENDCHAR
STARTCHAR 30f3
ENCODING 12531
SWIDTH 1920 0
DWIDTH 16 0
BBX 16 16 0 0
BITMAP
0000
0000
0F00
0F00
0000
0000
000C
000C
000C
000C
0030
0030
0FC0
0FC0
0000
0000
ENDCHAR
STARTCHAR 30fb
ENCODING 12539
SWIDTH 1920 0
DWIDTH 16 0
BBX 16 16 0 0
BITMAP
0000
0000
0000
0000
0000
0000
0000
0000
0000
0000
0000
0000
0C00
0C00
0000
0000
ENDCHAR
STARTCHAR 30fc
ENCODING 12540
SWIDTH 1920 0
DWIDTH 16 0
BBX 16 16 0 0
BITMAP
0000
0000
0000
0000
0000
0000
03F0
03F0
0000
0000
0000
0000
0000
0000
0000
0000
ENDCHAR
STARTCHAR 4eba
ENCODING 20154
SWIDTH 1920 0
DWIDTH 16 0
BBX 16 16 0 0
BITMAP
03F0
03F0
03F0
03F0
00C0
00C0
0FFC
0FFC
00C0
00C0
00C0
00C0
0330
0330
0C0C
0C0C
ENDCHAR
STARTCHAR 5012
ENCODING 20498
SWIDTH 1920 0
DWIDTH 16 0
BBX 16 16 0 0
BITMAP
0000
0000
C0C0
C0C0
30CF
30CF
0FFF
0FFF
30CF
30CF
C0C0
C0C0
0000
0000
0000
0000
ENDCHAR
STARTCHAR 516b
ENCODING 20843
SWIDTH 1920 0
DWIDTH 16 0
BBX 16 16 0 0
BITMAP
0000
0000
0303
0303
F30C
F30C
FFF0
FFF0
F30C
F30C
0303
0303
0000
0000
0000
0000
ENDCHAR
STARTCHAR 5186
ENCODING 20870
SWIDTH 1920 0
DWIDTH 16 0
BBX 16 16 0 0
BITMAP
3FFF
3FFF
30C3
30C3
30C3
30C3
3FFF
3FFF
3003
3003
3003
3003
3003
3003
0000
0000
ENDCHAR
STARTCHAR 5206
ENCODING 20998
SWIDTH 1920 0
DWIDTH 16 0
BBX 16 16 0 0
BITMAP
00C0
00C0
0330
0330
0C0C
0C0C
3FFF
3FFF
030C
030C
030C
030C
0C30
0C30
0000
0000
ENDCHAR
STARTCHAR 53cd
ENCODING 21453
SWIDTH 1920 0
DWIDTH 16 0
BBX 16 16 0 0
BITMAP
C0C0
C0C0
C300
C300
CC00
CC00
F000
F000
F000
F000
CCC0
CCC0
C3C0
C3C0
CFC0
CFC0
ENDCHAR
STARTCHAR 571f
ENCODING 22303
SWIDTH 1920 0
DWIDTH 16 0
BBX 16 16 0 0
BITMAP
0000
0000
00C0
00C0
00C0
00C0
0FFC
0FFC
00C0
00C0
00C0
00C0
3FFF
3FFF
0000
0000
ENDCHAR
STARTCHAR 5c04
ENCODING 23556
SWIDTH 1920 0
DWIDTH 16 0
BBX 16 16 0 0
BITMAP
CCC0
CCC0
CF00
CF00
CFC0
CFC0
F000
F000
F000
F000
CC00
CC00
C300
C300
C0C0
C0C0
ENDCHAR
STARTCHAR 5e74
ENCODING 24180
SWIDTH 1920 0
DWIDTH 16 0
BBX 16 16 0 0
BITMAP
0C00
0C00
0FFC
0FFC
30C0
30C0
0FF0
0FF0
0CC0
0CC0
3FFC
3FFC
00C0
00C0
0000
0000
ENDCHAR
STARTCHAR 62bc
ENCODING 25276
SWIDTH 1920 0
DWIDTH 16 0
BBX 16 16 0 0
BITMAP
03F0
03F0
03F0
03F0
0FFC
0FFC
03F0
03F0
00C0
00C0
0000
0000
0FFC
0FFC
0000
0000
ENDCHAR
STARTCHAR 65e5
ENCODING 26085
SWIDTH 1920 0
DWIDTH 16 0
BBX 16 16 0 0
BITMAP
0FFC
0FFC
0C0C
0C0C
0C0C
0C0C
0FFC
0FFC
0C0C
0C0C
0C0C
0C0C
0FFC
0FFC
0000
0000
ENDCHAR
STARTCHAR 661f
ENCODING 26143
SWIDTH 1920 0
DWIDTH 16 0
BBX 16 16 0 0
BITMAP
0000
0000
0C0F
0C0F
0C33
0C33
0CC3
0CC3
FF03
FF03
0CC3
0CC3
0C33
0C33
0C0F
0C0F
ENDCHAR
STARTCHAR 6642
ENCODING 26178
SWIDTH 1920 0
DWIDTH 16 0
BBX 16 16 0 0
BITMAP
0030
0030
3FFC
3FFC
3330
3330
3FFF
3FFF
330C
330C
3FFF
3FFF
00CC
00CC
0000
0000
ENDCHAR
STARTCHAR 6708
ENCODING 26376
SWIDTH 1920 0
DWIDTH 16 0
BBX 16 16 0 0
BITMAP
0FFC
0FFC
0C0C
0C0C
0FFC
0FFC
0C0C
0C0C
0FFC
0FFC
0C0C
0C0C
300C
300C
0000
0000
ENDCHAR
STARTCHAR 6728
ENCODING 26408
SWIDTH 1920 0
DWIDTH 16 0
BBX 16 16 0 0
BITMAP
00C0
00C0
00C0
00C0
0FFC
0FFC
00C0
00C0
03F0
03F0
0CCC
0CCC
30C3
30C3
0000
0000
ENDCHAR
STARTCHAR 672a
ENCODING 26410
SWIDTH 1920 0
DWIDTH 16 0
BBX 16 16 0 0
BITMAP
03C0
03C0
0C30
0C30
3FFC
3FFC
FFFF
FFFF
33CC
33CC
0C30
0C30
0000
0000
0000
0000
ENDCHAR
STARTCHAR 6a2a
ENCODING 27178
SWIDTH 1920 0
DWIDTH 16 0
BBX 16 16 0 0
BITMAP
FC00
FC00
303F
303F
300C
300C
3FFC
3FFC
300C
300C
303F
303F
FC00
FC00
0000
0000
ENDCHAR
STARTCHAR 6c34
ENCODING 27700
SWIDTH 1920 0
DWIDTH 16 0
BBX 16 16 0 0
BITMAP
00C0
00C0
00C3
00C3
0FCC
0FCC
00F0
00F0
03F0
03F0
0CCC
0CCC
30C3
30C3
0000
0000
ENDCHAR
STARTCHAR 6c60
ENCODING 27744
SWIDTH 1920 0
DWIDTH 16 0
BBX 16 16 0 0
BITMAP
00C0
00C0
00C0
00C0
0FFC
0FFC
0000
0000
0000
0000
0FFC
0FFC
00C0
00C0
00C0
00C0
ENDCHAR
STARTCHAR 706b
ENCODING 28779
SWIDTH 1920 0
DWIDTH 16 0
BBX 16 16 0 0
BITMAP
00C0
00C0
0CCC
0CCC
0CCC
0CCC
00C0
00C0
0330
0330
0C0C
0C0C
3003
3003
0000
0000
ENDCHAR
STARTCHAR 751f
ENCODING 29983
SWIDTH 1920 0
DWIDTH 16 0
BBX 16 16 0 0
BITMAP
00C0
00C0
30C0
30C0
3FFC
3FFC
30C0
30C0
0FFC
0FFC
00C0
00C0
3FFF
3FFF
0000
0000
ENDCHAR
STARTCHAR 79d2
ENCODING 31186
SWIDTH 1920 0
DWIDTH 16 0
BBX 16 16 0 0
BITMAP
0FC0
0FC0
030C
030C
3FFF
3FFF
033F
033F
0FCF
0FCF
330C
330C
0330
0330
0000
0000
ENDCHAR
STARTCHAR 86c7
ENCODING 34503
SWIDTH 1920 0
DWIDTH 16 0
BBX 16 16 0 0
BITMAP
0000
0000
F000
F000
F0C0
F0C0
3330
3330
3330
3330
3333
3333
0C0C
0C0C
0000
0000
ENDCHAR
STARTCHAR 885b
ENCODING 34907
SWIDTH 1920 0
DWIDTH 16 0
BBX 16 16 0 0
BITMAP
0000
0000
F030
F030
CC30
CC30
C330
C330
C0FF
C0FF
C330
C330
CC30
CC30
F030
F030
ENDCHAR
STARTCHAR 8eca
ENCODING 36554
SWIDTH 1920 0
DWIDTH 16 0
BBX 16 16 0 0
BITMAP
0C0C
0C0C
0FFC
0FFC
0CCC
0CCC
00C0
00C0
00C0
00C0
30C3
30C3
3FFF
3FFF
3003
3003
ENDCHAR
STARTCHAR 9006
ENCODING 36870
SWIDTH 1920 0
DWIDTH 16 0
BBX 16 16 0 0
BITMAP
0C0C
0C0C
0330
0330
00C0
00C0
00C0
00C0
0FFC
0FFC
00C0
00C0
03F0
03F0
03F0
03F0
ENDCHAR
STARTCHAR 91d1
ENCODING 37329
SWIDTH 1920 0
DWIDTH 16 0
BBX 16 16 0 0
BITMAP
00C0
00C0
0330
0330
0FFC
0FFC
30C3
30C3
0FFC
0FFC
03F0
03F0
3FFF
3FFF
0000
0000
ENDCHAR
STARTCHAR 96fb
ENCODING 38651
SWIDTH 1920 0
DWIDTH 16 0
BBX 16 16 0 0
BITMAP
0000
0000
0000
0000
0C30
0C30
0C30
0C30
FC3F
FC3F
0C30
0C30
0C30
0C30
0000
0000
ENDCHAR
STARTCHAR ff01
ENCODING 65281
SWIDTH 1920 0
DWIDTH 16 0
BBX 16 16 0 0
BITMAP
00C0
00C0
0300
0300
0C00
0C00
0300
0300
00C0
00C0
0030
0030
000C
000C
0030
0030
ENDCHAR
STARTCHAR ff0c
ENCODING 65292
SWIDTH 1920 0
DWIDTH 16 0
BBX 16 16 0 0
BITMAP
0000
0000
0000
0000
0000
0000
0000
0000
0000
0000
3000
3000
0C00
0C00
0300
0300
ENDCHAR
STARTCHAR ff0e
ENCODING 65294
SWIDTH 1920 0
DWIDTH 16 0
BBX 16 16 0 0
BITMAP
0000
0000
0000
0000
0000
0000
0000
0000
0000
0000
0000
0000
0C00
0C00
0000
0000
ENDCHAR
STARTCHAR ff0f
ENCODING 65295
SWIDTH 1920 0
DWIDTH 16 0
BBX 16 16 0 0
BITMAP
0003
0003
000C
000C
0030
0030
00C0
00C0
0300
0300
0C00
0C00
3000
3000
C000
C000
ENDCHAR
STARTCHAR ff11
ENCODING 65297
SWIDTH 1920 0
DWIDTH 16 0
BBX 16 16 0 0
BITMAP
0000
0000
0000
0000
0000
0000
0000
0000
0000
0000
0000
0000
FFFF
FFFF
0000
0000
ENDCHAR
STARTCHAR ff12
ENCODING 65298
SWIDTH 1920 0
DWIDTH 16 0
BBX 16 16 0 0
BITMAP
0000
0000
0000
0000
0000
0000
0000
0000
0000
0000
FFFF
FFFF
0000
0000
0000
0000
ENDCHAR
STARTCHAR ff13
ENCODING 65299
SWIDTH 1920 0
DWIDTH 16 0
BBX 16 16 0 0
BITMAP
0000
0000
0000
0000
0000
0000
FFFF
FFFF
0000
0000
0000
0000
0000
0000
0000
0000
ENDCHAR
STARTCHAR ff14
ENCODING 65300
SWIDTH 1920 0
DWIDTH 16 0
BBX 16 16 0 0
BITMAP
0000
0000
0000
0000
FFFF
FFFF
0000
0000
0000
0000
0000
0000
0000
0000
0000
0000
ENDCHAR
STARTCHAR ff15
ENCODING 65301
SWIDTH 1920 0
DWIDTH 16 0
BBX 16 16 0 0
BITMAP
0000
0000
FFFF
FFFF
0000
0000
0000
0000
0000
0000
0000
0000
0000
0000
0000
0000
ENDCHAR
STARTCHAR ff1c
ENCODING 65308
SWIDTH 1920 0
DWIDTH 16 0
BBX 16 16 0 0
BITMAP
0000
0000
3F00
3F00
C0C0
C0C0
3030
3030
0C0F
0C0F
0C00
0C00
3000
3000
C000
C000
ENDCHAR
STARTCHAR ff1d
ENCODING 65309
SWIDTH 1920 0
DWIDTH 16 0
BBX 16 16 0 0
BITMAP
0000
0000
FFFF
FFFF
0000
0000
C003
C003
300C
300C
300C
300C
C003
C003
0000
0000
ENDCHAR
STARTCHAR ff1e
ENCODING 65310
SWIDTH 1920 0
DWIDTH 16 0
BBX 16 16 0 0
BITMAP
0000
0000
00FC
00FC
0303
0303
0C0C
0C0C
F030
F030
0030
0030
000C
000C
0003
0003
ENDCHAR
STARTCHAR ff39
ENCODING 65337
SWIDTH 1920 0
DWIDTH 16 0
BBX 16 16 0 0
BITMAP
C000
C000
3000
3000
0C00
0C00
0300
0300
03FF
03FF
0C00
0C00
3000
3000
C000
C000
ENDCHAR
STARTCHAR ff3c
ENCODING 65340
SWIDTH 1920 0
DWIDTH 16 0
BBX 16 16 0 0
BITMAP
C000
C000
3000
3000
0C00
0C00
0300
0300
00C0
00C0
0030
0030
000C
000C
0003
0003
ENDCHAR
STARTCHAR ffe1
ENCODING 65505
SWIDTH 1920 0
DWIDTH 16 0
BBX 16 16 0 0
BITMAP
00F0
00F0
030C
030C
0300
0300
0FC0
0FC0
0300
0300
0300
0300
0FFC
0FFC
0000
0000
ENDCHAR
STARTCHAR ffe3
ENCODING 65507
SWIDTH 1920 0
DWIDTH 16 0
BBX 16 16 0 0
BITMAP
FFFF
FFFF
0000
0000
0000
0000
0000
0000
0000
0000
0000
0000
0000
0000
0000
0000
ENDCHAR
STARTCHAR ffe5
ENCODING 65509
SWIDTH 1920 0
DWIDTH 16 0
BBX 16 16 0 0
BITMAP
0C0C
0C0C
0330
0330
0FFC
0FFC
00C0
00C0
0FFC
0FFC
00C0
00C0
00C0
00C0
0000
0000
ENDCHAR
ENDFONT
